<svg width="387" height="243" viewBox="0 0 387 243" fill="none" xmlns="http://www.w3.org/2000/svg">
<path d="M185.637 61.3904C185.637 61.5548 185.635 61.7192 185.629 61.8824H149.855C149.849 61.7192 149.847 61.5548 149.847 61.3904C149.847 52.251 157.858 44.8435 167.741 44.8435C168.556 44.8435 169.358 44.8939 170.143 44.9923C178.891 46.076 185.637 53.0047 185.637 61.3904Z" fill="white"/>
<path d="M236.505 51.1446C236.505 52.0927 236.418 53.0228 236.253 53.9278C235.731 56.7758 234.424 59.3754 232.542 61.5309C232.439 61.6498 232.334 61.7662 232.228 61.8826H204.993C204.519 61.3689 204.078 60.8289 203.674 60.2635C201.804 57.6495 200.714 54.5134 200.714 51.1446C200.714 43.9579 205.669 37.8417 212.591 35.5566C214.472 34.936 216.498 34.5977 218.609 34.5977C227.543 34.5977 234.95 40.6526 236.289 48.5654C236.431 49.4055 236.505 50.2672 236.505 51.1446Z" fill="white"/>
<path d="M218.609 48.821C218.609 49.8303 218.519 50.8217 218.345 51.7914C217.666 55.6068 215.691 59.0754 212.804 61.8826H175.508C171.887 58.3613 169.703 53.8017 169.703 48.821C169.703 47.5116 169.854 46.2322 170.143 44.9924C172.308 35.6718 182.236 28.6304 194.156 28.6304C201.512 28.6304 208.109 31.3116 212.591 35.5566C216.339 39.1043 218.609 43.7442 218.609 48.821Z" fill="white"/>
<path d="M252.255 56.4314C252.255 58.4825 251.418 60.374 250.009 61.8826H232.854C232.746 61.7673 232.641 61.6509 232.542 61.5309C231.321 60.0847 230.607 58.3264 230.607 56.4314C230.607 54.9348 231.052 53.5245 231.841 52.2847C232.842 50.7089 234.395 49.4103 236.289 48.5654C237.819 47.8813 239.57 47.4937 241.431 47.4937C244.914 47.4937 248.012 48.851 249.991 50.961C251.411 52.4731 252.255 54.3706 252.255 56.4314Z" fill="white"/>
<path d="M245.602 61.8827H202.498C202.859 61.327 203.251 60.7857 203.674 60.2636C207.043 56.0799 212.25 52.993 218.345 51.7916C220.175 51.4291 222.085 51.2383 224.049 51.2383C226.774 51.2383 229.394 51.6055 231.841 52.2849C233.387 52.7134 234.863 53.2654 236.253 53.9279C238.077 54.7969 239.752 55.8554 241.239 57.07C242.968 58.4802 244.443 60.1004 245.602 61.8827Z" fill="white"/>
<path d="M283.842 61.8827H238.075C238.864 60.1533 239.935 58.5354 241.24 57.07C243.522 54.5051 246.52 52.4013 249.991 50.961C253.289 49.5916 257.015 48.821 260.957 48.821C271.423 48.821 280.352 54.2495 283.842 61.8827Z" fill="white"/>
<path d="M43.2612 79.3343C43.2612 79.5563 43.2587 79.7784 43.2524 79.9988H6.19138C6.18512 79.7784 6.18262 79.5563 6.18262 79.3343C6.18262 66.9898 14.482 56.9846 24.7211 56.9846C25.5654 56.9846 26.3959 57.0526 27.2091 57.1856C36.2721 58.6495 43.2612 68.008 43.2612 79.3343Z" fill="#D6D0D0"/>
<path d="M95.9586 65.4954C95.9586 66.776 95.8691 68.0323 95.6975 69.2547C95.1567 73.1014 93.8026 76.6127 91.853 79.5241C91.7462 79.6846 91.6379 79.8417 91.5273 79.999H63.3129C62.8217 79.3053 62.3654 78.5758 61.9465 77.8122C60.0093 74.2815 58.8804 70.0457 58.8804 65.4954C58.8804 55.7884 64.0129 47.5275 71.1847 44.4411C73.133 43.6029 75.2319 43.1458 77.4189 43.1458C86.6745 43.1458 94.3474 51.324 95.7349 62.0117C95.8816 63.1464 95.9586 64.3104 95.9586 65.4954Z" fill="#D6D0D0"/>
<path d="M77.4194 62.3576C77.4194 63.7209 77.3262 65.06 77.1459 66.3698C76.4421 71.5231 74.3967 76.2079 71.4052 79.9997H32.7676C29.0164 75.2435 26.7534 69.085 26.7534 62.3578C26.7534 60.5891 26.9101 58.8612 27.2097 57.1865C29.4527 44.5974 39.7379 35.0867 52.0869 35.0867C59.7076 35.0867 66.5411 38.7081 71.185 44.4419C75.0683 49.2334 77.4194 55.5004 77.4194 62.3576Z" fill="#D6D0D0"/>
<path d="M112.276 72.6364C112.276 75.4068 111.409 77.9617 109.949 79.9993H92.1766C92.0648 79.8437 91.9565 79.6865 91.8534 79.5244C90.5888 77.5711 89.8491 75.1961 89.8491 72.6366C89.8491 70.615 90.3104 68.7104 91.1273 67.0357C92.1643 64.9074 93.7732 63.1533 95.7352 62.012C97.3205 61.088 99.1345 60.5645 101.063 60.5645C104.671 60.5645 107.88 62.3978 109.931 65.2477C111.402 67.2901 112.276 69.8529 112.276 72.6364Z" fill="#D6D0D0"/>
<path d="M105.383 79.9995H60.728C61.1023 79.249 61.5089 78.5179 61.9465 77.8127C65.4366 72.1616 70.8316 67.9923 77.1454 66.3696C79.0416 65.8801 81.0197 65.6223 83.0551 65.6223C85.8776 65.6223 88.5918 66.1183 91.127 67.0359C92.7285 67.6146 94.2578 68.3602 95.6976 69.2552C97.5875 70.4287 99.3232 71.8587 100.864 73.4992C102.654 75.4039 104.182 77.5923 105.383 79.9995Z" fill="#D6D0D0"/>
<path d="M145 79.9993H97.5854C98.4036 77.6634 99.5126 75.4781 100.864 73.4988C103.229 70.0345 106.335 67.1928 109.931 65.2475C113.348 63.398 117.207 62.3572 121.291 62.3572C132.134 62.3574 141.384 69.6894 145 79.9993Z" fill="#D6D0D0"/>
<path d="M30.9859 88.3912C30.9859 88.5336 30.9839 88.6759 30.9786 88.8173H0.00731907C0.00215197 88.676 0 88.5336 0 88.3912C0 80.4787 6.93571 74.0657 15.4924 74.0657C16.198 74.0657 16.892 74.1094 17.5716 74.1946C25.1453 75.1328 30.9859 81.1313 30.9859 88.3912Z" fill="white"/>
<path d="M75.0245 79.5209C75.0245 80.3417 74.9497 81.147 74.8063 81.9305C74.3543 84.3962 73.2227 86.6468 71.5935 88.513C71.5041 88.6158 71.4138 88.7166 71.3213 88.8174H47.7429C47.3324 88.3727 46.9511 87.9051 46.601 87.4157C44.9821 85.1526 44.0386 82.4375 44.0386 79.5209C44.0386 73.2991 48.3278 68.004 54.3211 66.0256C55.9493 65.4884 57.7032 65.1953 59.531 65.1953C67.2658 65.1953 73.6778 70.4374 74.8374 77.2879C74.96 78.0153 75.0245 78.7613 75.0245 79.5209Z" fill="white"/>
<path d="M59.5308 77.5091C59.5308 78.3829 59.4529 79.2412 59.3022 80.0808C58.7141 83.3839 57.0048 86.3869 54.5048 88.8172H22.2159C19.081 85.7686 17.1899 81.8211 17.1899 77.509C17.1899 76.3754 17.3209 75.2678 17.5712 74.1944C19.4457 66.125 28.0409 60.0288 38.3608 60.0288C44.7292 60.0288 50.4399 62.3501 54.3208 66.0253C57.5659 69.0969 59.5308 73.1139 59.5308 77.5091Z" fill="white"/>
<path d="M88.66 84.0981C88.66 85.8738 87.9357 87.5114 86.7159 88.8175H71.8635C71.77 88.7178 71.6797 88.6169 71.5934 88.513C70.5366 87.2609 69.9185 85.7387 69.9185 84.0981C69.9185 82.8024 70.3039 81.5815 70.9866 80.5081C71.8532 79.1438 73.1977 78.0195 74.8373 77.288C76.1622 76.6958 77.6781 76.3601 79.2897 76.3601C82.3051 76.3601 84.9869 77.5353 86.7003 79.362C87.9296 80.6712 88.66 82.314 88.66 84.0981Z" fill="white"/>
<path d="M82.9009 88.8173H45.583C45.8958 88.3363 46.2355 87.8676 46.6013 87.4155C49.5179 83.7934 54.0264 81.1209 59.3028 80.0808C60.8874 79.767 62.5405 79.6018 64.2415 79.6018C66.6001 79.6018 68.8684 79.9197 70.9871 80.5079C72.3254 80.8789 73.6035 81.3568 74.8067 81.9304C76.386 82.6827 77.8365 83.5991 79.1239 84.6506C80.6201 85.8715 81.8971 87.2743 82.9009 88.8173Z" fill="white"/>
<path d="M116.007 88.8174H76.3838C77.0675 87.3201 77.9944 85.9195 79.1238 84.6508C81.1001 82.4303 83.6957 80.6088 86.7006 79.3619C89.556 78.1763 92.7812 77.5093 96.1945 77.5093C105.255 77.5093 112.986 82.209 116.007 88.8174Z" fill="white"/>
<path d="M369.878 227.977H48.8909C44.02 227.977 40.0713 224.029 40.0713 219.158V170.783C40.0713 165.912 44.0199 161.964 48.8909 161.964H369.878C374.749 161.964 378.698 165.912 378.698 170.783V219.158C378.698 224.029 374.749 227.977 369.878 227.977Z" fill="white"/>
<path d="M369.878 227.977H48.8909C44.02 227.977 40.0713 224.029 40.0713 219.158V170.783C40.0713 165.912 44.0199 161.964 48.8909 161.964H369.878C374.749 161.964 378.698 165.912 378.698 170.783V219.158C378.698 224.029 374.749 227.977 369.878 227.977Z" stroke="#09436A" stroke-width="16.2686" stroke-miterlimit="10"/>
<path d="M369.879 227.977H312.685V161.964H369.879C374.749 161.964 378.698 165.912 378.698 170.783V219.158C378.698 224.029 374.75 227.977 369.879 227.977Z" fill="#09436A"/>
<path d="M79.3846 185.873V202.755H76.0034L68.3474 191.186V202.755H64.9663V185.873H68.3474L76.0034 197.466V185.873H79.3846Z" fill="#09436A"/>
<path d="M92.4975 188.626H86.0974V192.853H91.773V195.534H86.0974V200.002H92.4975V202.755H82.7163V185.873H92.4975V188.626Z" fill="#09436A"/>
<path d="M105.345 188.626H98.9451V192.853H104.621V195.534H98.9451V200.002H105.345V202.755H95.564V185.873H105.345V188.626Z" fill="#09436A"/>
<path d="M123.192 194.35C123.192 199.446 119.69 202.754 114.305 202.754H108.412V185.897H114.305C119.69 185.897 123.192 189.23 123.192 194.35ZM114.184 199.88C117.734 199.88 119.739 197.852 119.739 194.35C119.739 190.848 117.734 188.747 114.184 188.747H111.793V199.88L114.184 199.88Z" fill="#09436A"/>
<path d="M131.547 202.924C128.045 202.924 125.34 201.088 125.292 197.9H128.915C129.011 199.253 129.905 200.146 131.475 200.146C133.069 200.146 134.011 199.301 134.011 198.093C134.011 194.447 125.316 196.644 125.34 190.534C125.34 187.491 127.804 185.656 131.282 185.656C134.735 185.656 137.102 187.419 137.319 190.462H133.6C133.528 189.351 132.634 188.481 131.185 188.457C129.857 188.409 128.866 189.061 128.866 190.438C128.866 193.819 137.513 191.935 137.513 197.876C137.512 200.533 135.387 202.924 131.547 202.924Z" fill="#09436A"/>
<path d="M152.606 185.897H156.011V197.731C156.011 201.064 153.886 202.923 150.77 202.923C147.607 202.923 145.385 201.016 145.385 197.61H148.766C148.79 199.035 149.442 199.905 150.722 199.905C151.978 199.905 152.606 199.059 152.606 197.731V185.897H152.606Z" fill="#09436A"/>
<path d="M167.772 202.924C163.014 202.924 159.125 199.349 159.125 194.278C159.125 189.23 163.014 185.656 167.772 185.656C172.578 185.656 176.394 189.23 176.394 194.278C176.394 199.349 172.553 202.924 167.772 202.924ZM167.772 199.905C170.815 199.905 172.916 197.707 172.916 194.278C172.916 190.848 170.815 188.699 167.772 188.699C164.704 188.699 162.603 190.848 162.603 194.278C162.603 197.707 164.704 199.905 167.772 199.905Z" fill="#09436A"/>
<path d="M186.173 202.754H178.904V185.897H185.859C189.385 185.897 191.342 187.732 191.342 190.244C191.342 192.297 190.11 193.577 188.468 194.108C190.376 194.446 191.728 196.21 191.728 198.19C191.728 200.871 189.675 202.754 186.173 202.754ZM185.376 188.626H182.285V192.853H185.376C186.97 192.853 187.888 192.128 187.888 190.751C187.888 189.399 186.97 188.626 185.376 188.626ZM185.618 195.461H182.285V200.001H185.69C187.333 200.001 188.299 199.204 188.299 197.779C188.299 196.33 187.26 195.461 185.618 195.461Z" fill="#09436A"/>
<path d="M349.966 199.245C345.458 203.753 338.123 203.753 333.615 199.245C329.107 194.737 329.107 187.402 333.615 182.894C338.123 178.386 345.458 178.386 349.966 182.894C354.474 187.402 354.474 194.737 349.966 199.245ZM336.17 185.45C333.072 188.549 333.072 193.591 336.17 196.69C339.269 199.789 344.311 199.789 347.41 196.69C350.509 193.591 350.509 188.549 347.41 185.45C344.311 182.351 339.269 182.351 336.17 185.45Z" fill="white"/>
<path d="M360.619 209.899C359.913 210.605 358.769 210.605 358.063 209.899L347.41 199.246L349.966 196.69L360.619 207.343C361.325 208.049 361.325 209.193 360.619 209.899Z" fill="white"/>
<path d="M317.621 49.8789C317.621 49.8789 308.487 53.9892 307.019 58.8872C305.551 63.7851 305.155 117.997 308.666 123.685C312.178 129.373 346.779 134.903 351.361 131.111C355.943 127.319 334.9 46.0228 332.641 46.0034C330.383 45.9841 325.846 54.8444 317.621 49.8789Z" fill="white"/>
<path d="M307.906 11.8153C310.693 7.66337 319.944 11.3922 319.944 11.3922L315.153 27.8514L307.073 27.7273C307.073 27.7273 303.172 18.8654 307.906 11.8153Z" fill="#1A1C1B"/>
<path d="M318.561 36.976L330.728 35.8479C330.728 35.8479 329.445 42.5669 333.488 48.0265C334.818 49.8237 332.086 51.956 329.46 53.4701C327.082 54.8406 324.21 55.045 321.665 54.0188C319.255 53.0471 316.648 51.8092 316.946 51.1016C320.86 44.5583 318.561 36.976 318.561 36.976Z" fill="#FFDBC7"/>
<path d="M318.576 36.9845C318.576 36.9845 319.152 42.6612 318.407 48.125C321.318 48.0642 325.318 47.0372 330.766 41.3497C330.408 38.5316 330.739 35.8562 330.739 35.8562L318.576 36.9845Z" fill="#FFD6C0"/>
<path d="M310.171 13.535C314.987 5.44953 330.779 6.5082 336.03 14.2538C341.281 21.9991 335.455 33.4162 332.049 37.312C325.902 44.3455 314.089 44.7717 310.057 39.2815C306.025 33.7921 305.355 21.6203 310.171 13.535Z" fill="#FFDBC7"/>
<path d="M307.835 19.1533C308.384 17.1664 309.146 15.2558 310.171 13.5353C314.987 5.4499 330.78 6.50857 336.031 14.2541C338.414 17.7696 338.512 22.0404 337.593 26.0221C336.369 26.6619 335.012 27.1065 333.547 27.4487C333.534 27.4516 327.306 22.0183 325.565 15.7805C325.565 15.7805 315.13 20.0765 307.835 19.1533Z" fill="#FFCBAD"/>
<path d="M338.92 8.37265C335.993 5.3539 331.544 2.66789 327.052 6.46346C323.397 9.55173 329.412 24.3795 331.376 26.559C334.085 29.5648 333.425 37.617 334.863 34.0732C338.174 25.9139 347.289 18.0174 338.92 8.37265Z" fill="#252725"/>
<path d="M301.735 12.552C301.709 8.7453 308.29 2.64237 315.429 0.70929C325.238 -1.9467 330.195 3.59039 330.667 6.02126C331.139 8.45214 331.032 12.8784 315.181 16.1938C312.072 16.844 308.535 17.1161 308.535 17.1161C308.535 17.1161 301.747 14.2956 301.735 12.552Z" fill="#252725"/>
<path d="M321.87 0.070625C320.018 -0.112953 317.88 0.0479096 315.428 0.71193C308.289 2.64481 301.712 8.75301 301.738 12.5597C301.74 12.834 302.116 13.1489 302.4 13.4614C311.067 1.66141 322.711 1.82295 327.995 2.63282C326.538 1.44654 324.641 0.345456 321.87 0.070625Z" fill="#474A46"/>
<path d="M332.053 31.3382C332.347 28.818 334.639 27.0138 337.171 27.3096C339.704 27.6054 341.519 29.8877 341.225 32.4078C340.931 34.928 338.64 36.7312 336.107 36.4354C333.574 36.1406 331.759 33.8576 332.053 31.3382Z" fill="#FFDBC7"/>
<path d="M312.684 110.587L303.638 114.325L296.605 117.23L277.614 125.076L268.898 118.503L293.417 96.778C293.417 96.778 292.848 80.2686 293.681 73.2336C294.515 66.1966 300.649 57.9429 300.649 57.9429L312.684 110.587Z" fill="#09436A"/>
<path opacity="0.18" d="M303.639 114.325L296.605 117.23C296.682 117.01 302.297 101.075 300.823 93.5861C299.339 86.046 299.953 74.9397 299.953 74.9397C304.779 81.0876 304.534 109.442 303.639 114.325Z" fill="#232323"/>
<path d="M316.286 135.219C312.811 131.428 295.589 132.059 296.22 125.897C296.853 119.736 302.866 108.604 303.814 101.019C304.078 98.8987 304.113 97.1144 303.99 95.6107C303.674 91.7327 303.843 88.1046 302.705 86.8897C302.04 86.1801 300.13 82.5246 299.986 76.5675C299.786 68.364 300.042 58.8218 300.65 57.9431C300.652 57.941 300.654 57.939 300.654 57.939C301.706 56.4641 317.622 49.8799 317.622 49.8799C319.291 52.417 316.564 61.4559 317.73 76.155C317.843 77.6112 317.998 79.1232 318.198 80.6909C318.2 80.7136 318.204 80.7363 318.206 80.7589C318.229 80.9384 318.251 81.1178 318.274 81.3015C318.924 86.5326 319.516 93.2159 320.065 100.367C321.36 117.23 319.723 111.108 320.711 120.208C322.132 133.323 319.762 139.01 316.286 135.219Z" fill="#09436A"/>
<path d="M300.123 113.397C300.123 113.397 292.418 116.362 290.791 118.303C289.163 120.245 289.86 124.775 291.055 125.422C292.25 126.069 294.988 122.336 297.776 122.883C300.564 123.431 303.581 124.389 305.284 123.313L300.123 113.397Z" fill="#FFDBC7"/>
<path d="M258.056 215.7L255.907 222.524L244.263 220.496L246.411 213.672L258.056 215.7Z" fill="#FFDBC7"/>
<path d="M213.149 234.026L255.546 241.411C255.961 240.893 256.275 240.111 256.514 239.154C257.404 235.614 257.258 229.691 257.326 225.985C257.331 225.552 257.342 225.148 257.358 224.784C257.385 224.167 257.425 223.657 257.489 223.288C258.002 220.343 255.307 220.394 255.307 220.394C250.284 223.853 246.525 216.698 243.328 218.274C243.328 218.274 241.954 218.937 238.06 221.378C234.169 223.821 228.094 224.822 222.866 226.012C216.117 227.546 213.875 229.863 213.211 231.611C212.687 232.997 213.149 234.026 213.149 234.026Z" fill="#262525"/>
<path d="M213.149 234.026L255.546 241.411C255.961 240.893 256.274 240.111 256.514 239.154L213.211 231.611C212.686 232.997 213.149 234.026 213.149 234.026Z" fill="#7B4B87"/>
<path d="M340.967 131.494C340.967 131.494 349.018 160.733 324.216 163.259C299.414 165.786 280.261 157.373 280.261 157.373L259.057 218.759L244.619 216.711C244.619 216.711 255.268 134.144 266.172 130.973C277.076 127.802 318.069 129.773 318.069 129.773L340.967 131.494Z" fill="#262525"/>
<path d="M272.849 216.867L270.701 223.691L256.81 220.491L258.958 213.667L272.849 216.867Z" fill="#FFDBC7"/>
<path d="M225.696 234.022L270.34 242.579C270.755 242.061 271.069 241.278 271.308 240.321C272.198 236.781 272.051 230.859 272.12 227.152C272.125 226.719 272.135 226.315 272.152 225.951C272.179 225.335 272.218 224.824 272.283 224.456C272.795 221.51 270.101 221.561 270.101 221.561C265.078 225.021 259.072 216.694 255.875 218.269C255.875 218.269 254.501 218.932 250.607 221.374C246.716 223.816 240.641 224.818 235.413 226.008C228.664 227.542 226.422 229.858 225.758 231.607C225.233 232.992 225.696 234.022 225.696 234.022Z" fill="#3F3F3F"/>
<path d="M225.696 234.022L270.34 242.579C270.755 242.061 271.069 241.278 271.308 240.321L225.758 231.607C225.233 232.992 225.696 234.022 225.696 234.022Z" fill="#09436A"/>
<path d="M354.44 131.503C354.44 131.503 356.604 160.353 331.802 162.879C307 165.406 293.546 157.373 293.546 157.373L272.533 219.077L256.494 215.237C256.494 215.237 264.023 136.611 274.927 133.44C285.832 130.269 318.038 129.773 318.038 129.773L354.44 131.503Z" fill="#3F3F3F"/>
<path d="M293.171 122.11C293.212 123.114 292.425 123.879 291.423 123.809L242.64 120.407C241.637 120.338 240.783 119.459 240.742 118.455L238.806 71.4465C238.765 70.4422 239.552 69.6775 240.554 69.7474L289.337 73.1487C290.34 73.2186 291.194 74.0979 291.235 75.102L293.171 122.11Z" fill="#ACACAC"/>
<path d="M295.301 127.924C295.231 128.927 294.353 129.69 293.351 129.62L244.052 126.183C243.05 126.113 242.287 125.235 242.356 124.233L242.496 122.229C242.566 121.227 243.443 120.464 244.446 120.534L293.744 123.971C294.747 124.041 295.51 124.918 295.44 125.921L295.301 127.924Z" fill="#7E7E7E"/>
<path d="M321.882 129.778C321.812 130.781 320.934 131.544 319.932 131.474L294.13 129.675C293.127 129.605 292.364 128.727 292.434 127.725L292.574 125.721C292.644 124.718 293.521 123.955 294.524 124.025L320.326 125.824C321.328 125.894 322.092 126.772 322.022 127.774L321.882 129.778Z" fill="#999999"/>
<path d="M307.217 128.691L305.056 128.541C304.723 128.517 304.469 128.226 304.493 127.893L304.539 127.227C304.562 126.894 304.854 126.641 305.187 126.664L307.347 126.815C307.681 126.838 307.934 127.129 307.911 127.462L307.864 128.128C307.841 128.461 307.55 128.715 307.217 128.691Z" fill="#999999"/>
<path d="M293.68 122.662C293.708 123.381 293.186 123.932 292.519 123.885C291.853 123.839 291.285 123.212 291.257 122.493L290.711 108.471C290.683 107.752 290.638 106.575 290.61 105.856L290.113 92.9621C290.085 92.2429 290.054 91.4529 290.045 91.2072C290.035 90.9615 290.004 90.172 289.976 89.4527L289.804 85.0567C289.776 84.3379 289.73 83.161 289.702 82.4417L289.394 74.4584C289.366 73.7391 289.889 73.1887 290.555 73.2352C291.222 73.2817 291.79 73.908 291.817 74.6273L291.885 76.4384C291.913 77.1576 291.943 77.9596 291.954 78.2209C291.964 78.4817 291.995 79.2839 292.023 80.0032L292.297 87.0804C292.324 87.7996 292.36 88.72 292.376 89.1254C292.39 89.5313 292.427 90.4516 292.454 91.1709L292.936 103.484C292.964 104.202 293.01 105.379 293.037 106.099L293.68 122.662Z" fill="#999999"/>
<path d="M361.553 124.008C360.892 130.485 359.385 135.802 357.267 138.366C353.264 143.212 333.093 139.326 329.901 133.798C327.321 129.333 328.807 126.363 330.156 118.445C330.531 116.243 330.895 113.662 331.159 110.558C331.34 108.436 331.472 106.071 331.529 103.417C331.708 94.9763 330.049 79.7363 330.234 76.5346C330.234 76.5229 330.03 50.3501 332.169 45.8538C332.169 45.8538 344.999 48.7766 351.105 53.1988C352.022 53.8618 352.913 55.798 353.783 58.6506C354.878 62.25 356.286 70.6305 357.587 79.3463C359.24 90.4331 360.718 102.066 361.149 105.11C362.062 111.577 362.142 118.25 361.553 124.008Z" fill="#09436A"/>
<path opacity="0.18" d="M361.553 124.008C361.851 110.068 356.271 100.331 356.271 100.331C352.603 107.005 335.585 115.773 330.156 118.445C330.531 116.243 330.895 113.662 331.158 110.558C337.234 103.776 350.103 89.2263 352.012 85.5957C353.307 83.133 355.19 80.723 357.587 79.3464C359.24 90.4333 360.718 102.066 361.149 105.11C362.062 111.577 362.142 118.25 361.553 124.008Z" fill="#232323"/>
<path opacity="0.18" d="M330.766 86.4051L343.406 69.3083L332.022 93.1264L331.242 93.5864L330.766 86.4051Z" fill="#232323"/>
<path d="M351.106 53.1987L332.022 93.1265L299.541 112.279L306.202 125.077L344.497 108.735C344.497 108.735 361.697 90.2252 361.1 77.2815C360.503 64.3377 353.772 55.799 351.106 53.1987Z" fill="#09436A"/>
<path opacity="0.18" d="M303.652 109.855C303.652 109.855 319.697 95.7425 319.725 96.0845C319.753 96.4265 320.064 100.367 320.064 100.367L303.652 109.855Z" fill="#232323"/>
<path opacity="0.18" d="M307.228 124.639L321.03 124.008L320.58 118.941L307.228 124.639Z" fill="#232323"/>
</svg>
