<svg width="379" height="339" viewBox="0 0 379 339" fill="none" xmlns="http://www.w3.org/2000/svg">
<path d="M286.595 210.187C322.466 210.187 351.545 181.099 351.545 145.219C351.545 109.338 322.466 80.2505 286.595 80.2505C250.724 80.2505 221.645 109.338 221.645 145.219C221.645 181.099 250.724 210.187 286.595 210.187Z" fill="#D7D7D7"/>
<path d="M214.617 104.725C214.519 104.725 214.42 104.707 214.325 104.671L165.64 85.9192C165.369 85.8149 165.175 85.574 165.13 85.2873L157.022 33.7373C156.977 33.4507 157.088 33.1617 157.313 32.9792L197.891 0.180465C198.116 -0.00190209 198.422 -0.04997 198.693 0.0542015L247.378 18.8056C247.649 18.9099 247.844 19.1508 247.889 19.4375L255.997 70.9875C256.042 71.2741 255.931 71.5631 255.705 71.7456L215.128 104.544C214.981 104.663 214.8 104.725 214.617 104.725ZM166.661 84.5714L214.471 102.986L254.319 70.7766L246.357 20.1533L198.547 1.73888L158.699 33.948L166.661 84.5714Z" fill="#F5F5F5"/>
<path d="M298.567 293.004C298.517 293.004 298.465 292.999 298.414 292.989L247.176 283.173C246.891 283.118 246.657 282.916 246.562 282.641L229.441 233.347C229.346 233.073 229.404 232.769 229.594 232.549L263.712 193.072C263.902 192.852 264.194 192.751 264.479 192.805L315.718 202.621C316.003 202.676 316.237 202.879 316.332 203.153L333.452 252.447C333.548 252.721 333.489 253.025 333.3 253.245L299.181 292.723C299.026 292.903 298.801 293.004 298.567 293.004ZM247.942 281.665L298.26 291.305L331.764 252.537L314.952 204.129L264.634 194.489L231.13 233.257L247.942 281.665Z" fill="#B6CDFF"/>
<path d="M144.006 306.497C195.801 306.497 237.789 264.497 237.789 212.688C237.789 160.879 195.801 118.879 144.006 118.879C92.2112 118.879 50.2231 160.879 50.2231 212.688C50.2231 264.497 92.2112 306.497 144.006 306.497Z" fill="#D7D7D7"/>
<path d="M208.461 321.759C300.857 321.759 375.758 318.962 375.758 315.511C375.758 312.061 300.857 309.264 208.461 309.264C116.066 309.264 41.1641 312.061 41.1641 315.511C41.1641 318.962 116.066 321.759 208.461 321.759Z" fill="#999999"/>
<path d="M292.718 309.147H290.666L282.872 288.575L252.828 209.268H136.044L106 288.575L98.2073 309.147H96.1558L97.0878 313.647H97.089C97.2893 314.767 98.0716 315.512 99.283 315.512H289.59C290.801 315.512 291.584 314.767 291.784 313.647H291.786L292.718 309.147Z" fill="#C5E8FF"/>
<path d="M283.79 283.444H105.084L115.848 254.597L121.782 238.687L135.341 202.35H253.532L267.09 238.687L273.027 254.597L283.79 283.444Z" fill="#216898"/>
<path d="M290.522 310.926H98.3509C96.4063 310.926 95.5472 309.004 96.4179 306.67L105.084 283.444H283.789L292.455 306.67C293.326 309.004 292.467 310.926 290.522 310.926Z" fill="#09436A"/>
<path d="M162.959 264.12H137.835C136.973 264.12 136.461 263.415 136.69 262.551L148.667 217.213C148.809 216.674 149.471 216.239 150.145 216.239H169.805C170.479 216.239 170.967 216.674 170.894 217.213L164.733 262.551C164.615 263.415 163.821 264.12 162.959 264.12Z" fill="white"/>
<path d="M206.999 264.12H181.874C181.013 264.12 180.359 263.415 180.415 262.551L183.323 217.213C183.358 216.674 183.932 216.239 184.607 216.239H204.267C204.941 216.239 205.515 216.674 205.55 217.213L208.458 262.551C208.513 263.415 207.86 264.12 206.999 264.12Z" fill="white"/>
<path d="M251.038 264.12H225.914C225.052 264.12 224.258 263.415 224.14 262.551L217.979 217.213C217.906 216.674 218.394 216.239 219.068 216.239H238.728C239.402 216.239 240.064 216.674 240.206 217.213L252.184 262.551C252.412 263.415 251.9 264.12 251.038 264.12Z" fill="white"/>
<path d="M291.4 232.933H289.375L278.06 215.308L242.027 159.179H146.846L110.813 215.308L99.4982 232.933H97.4741V236.994H97.4753C97.4437 238.016 98.0715 238.699 99.283 238.699H289.59C290.801 238.699 291.429 238.016 291.398 236.994H291.4L291.4 232.933Z" fill="#C5E8FF"/>
<path d="M278.06 211.138H110.812L122.559 192.839L127.963 184.42L146.845 155.009H242.027L260.909 184.42L266.314 192.839L278.06 211.138Z" fill="#216898"/>
<path d="M289.59 234.529H99.2831C97.3574 234.529 96.9034 232.805 98.2352 230.73L110.813 211.138H278.061L290.638 230.73C291.97 232.805 291.516 234.529 289.59 234.529Z" fill="white"/>
<path d="M166.074 196.173H143.435C142.659 196.173 142.268 195.648 142.559 195.006L156.611 164.093C156.765 163.755 157.339 163.483 157.895 163.483H174.115C174.672 163.483 175.059 163.755 174.98 164.093L167.752 195.006C167.602 195.648 166.85 196.173 166.074 196.173Z" fill="white"/>
<path d="M205.756 196.173H183.117C182.341 196.173 181.769 195.648 181.84 195.006L185.252 164.093C185.289 163.755 185.77 163.483 186.326 163.483H202.546C203.103 163.483 203.584 163.755 203.621 164.093L207.033 195.006C207.104 195.648 206.532 196.173 205.756 196.173Z" fill="white"/>
<path d="M245.439 196.173H222.8C222.024 196.173 221.271 195.648 221.121 195.006L213.894 164.093C213.815 163.755 214.202 163.483 214.758 163.483H230.978C231.535 163.483 232.109 163.755 232.262 164.093L246.314 195.006C246.606 195.648 246.215 196.173 245.439 196.173Z" fill="white"/>
<path d="M281.894 57.5739V81.9867C281.894 83.0536 281.031 83.9168 279.964 83.9168H108.908C107.842 83.9168 106.979 83.0536 106.979 81.9867V57.5739C106.979 57.3218 107.027 57.08 107.116 56.8609C107.396 56.1479 108.094 55.6438 108.908 55.6438H279.964C281.031 55.6437 281.894 56.5069 281.894 57.5739Z" fill="#216898"/>
<path d="M293.775 43.5638V67.7245C293.775 68.8602 292.853 69.7819 291.718 69.7819H97.1545C96.0191 69.7819 95.0977 68.8601 95.0977 67.7245V43.5638C95.0977 42.4281 96.0193 41.5063 97.1545 41.5063H291.718C292.853 41.5063 293.775 42.4281 293.775 43.5638Z" fill="#09436A"/>
<path d="M281.894 95.786V120.199C281.894 121.266 281.031 122.131 279.964 122.131H108.908C107.842 122.131 106.979 121.266 106.979 120.199V95.786C106.979 94.7216 107.842 93.8557 108.908 93.8557H279.964C281.031 93.8557 281.894 94.7216 281.894 95.786Z" fill="#C5E8FF"/>
<path d="M293.775 81.7778V105.936C293.775 107.072 292.853 107.993 291.718 107.993H97.1545C96.0191 107.993 95.0977 107.072 95.0977 105.936V81.7778C95.0977 80.6396 96.0193 79.7202 97.1545 79.7202H291.718C292.853 79.7202 293.775 80.6396 293.775 81.7778Z" fill="#09436A"/>
<path d="M281.894 134.001V158.413C281.894 159.478 281.031 160.343 279.964 160.343H108.908C107.842 160.343 106.979 159.478 106.979 158.413V134.001C106.979 132.934 107.842 132.07 108.908 132.07H279.964C281.031 132.07 281.894 132.934 281.894 134.001Z" fill="#216898"/>
<path d="M293.775 119.99V144.148C293.775 145.286 292.853 146.206 291.718 146.206H97.1545C96.0191 146.206 95.0977 145.286 95.0977 144.148V119.99C95.0977 119.053 95.7264 118.261 96.5843 118.014C96.765 117.96 96.9559 117.932 97.1545 117.932H291.718C292.853 117.932 293.775 118.854 293.775 119.99Z" fill="#09436A"/>
<path d="M293.775 158.202V182.362C293.775 183.498 292.853 184.42 291.718 184.42H97.1545C96.0191 184.42 95.0977 183.498 95.0977 182.362V158.202C95.0977 157.066 96.0193 156.144 97.1545 156.144H291.718C292.853 156.144 293.775 157.066 293.775 158.202Z" fill="white"/>
<path d="M112.4 61.0668C115.394 61.0668 117.822 58.6389 117.822 55.6438C117.822 52.6487 115.394 50.2207 112.4 50.2207C109.406 50.2207 106.979 52.6487 106.979 55.6438C106.979 58.6389 109.406 61.0668 112.4 61.0668Z" fill="white"/>
<path d="M134.524 61.0668C137.518 61.0668 139.946 58.6389 139.946 55.6438C139.946 52.6487 137.518 50.2207 134.524 50.2207C131.53 50.2207 129.103 52.6487 129.103 55.6438C129.103 58.6389 131.53 61.0668 134.524 61.0668Z" fill="#B6CDFF"/>
<path d="M156.648 61.0668C159.642 61.0668 162.07 58.6389 162.07 55.6438C162.07 52.6487 159.642 50.2207 156.648 50.2207C153.654 50.2207 151.227 52.6487 151.227 55.6438C151.227 58.6389 153.654 61.0668 156.648 61.0668Z" fill="white"/>
<path opacity="0.27" d="M266.314 192.839H122.559L127.963 184.42H260.909L266.314 192.839Z" fill="#ADDEFF"/>
<path opacity="0.27" d="M273.027 254.597H115.848L121.782 238.687H267.09L273.027 254.597Z" fill="#ADDEFF"/>
<path opacity="0.3" d="M233.135 83.9169C233.038 82.5138 232.898 81.1158 232.715 79.7203C232.285 76.3693 231.615 73.0461 230.711 69.7816C229.37 64.9103 227.509 60.1688 225.141 55.6437C222.514 50.6195 219.263 45.8654 215.404 41.5059H194.765C195.55 42.0508 196.326 42.6187 197.09 43.2094C201.779 46.8278 205.758 51.0346 209.001 55.6437C212.097 60.0389 214.523 64.8058 216.262 69.7816C217.392 73.0181 218.232 76.3463 218.772 79.7203C218.996 81.1107 219.169 82.5113 219.291 83.9169C219.579 87.2145 219.584 90.5428 219.301 93.8556C218.897 98.6353 217.896 103.387 216.282 107.993C215.091 111.401 213.563 114.729 211.695 117.932C210.862 119.358 209.963 120.759 208.994 122.131C208.52 122.806 208.029 123.471 207.52 124.13C205.264 127.056 202.779 129.704 200.111 132.07C191.028 140.13 179.814 144.917 168.203 146.205C163.962 146.676 159.667 146.682 155.406 146.205C145.258 145.082 135.284 141.253 126.624 134.568C125.582 133.763 124.574 132.931 123.604 132.07C120.201 129.06 117.232 125.719 114.71 122.131C113.747 120.766 112.849 119.363 112.019 117.932C110.173 114.754 108.646 111.424 107.449 107.993C107.286 107.528 107.128 107.059 106.978 106.588C104.206 97.9452 103.483 88.7246 104.919 79.7203H97.1542C96.0188 79.7203 95.0973 80.6397 95.0973 81.7779V105.936C95.0973 107.072 96.0189 107.993 97.1542 107.993H106.978V117.932H97.1542C96.9555 117.932 96.7647 117.96 96.584 118.014C99.2239 123.96 102.696 129.59 106.978 134.716C108.126 136.094 109.333 137.433 110.598 138.732L106.978 142.946L104.18 146.205H106.978V156.144H97.1542C96.0188 156.144 95.0973 157.066 95.0973 158.202V182.362C95.0973 183.498 96.0189 184.42 97.1542 184.42H103.671L120.297 160.343L122.65 156.936L123.197 156.144L126.662 151.128C130.195 153.129 133.849 154.8 137.583 156.144C139.935 156.995 142.323 157.713 144.729 158.304C146.088 158.637 147.453 158.93 148.825 159.18C152.605 159.877 156.424 160.262 160.24 160.343C161.256 160.366 162.272 160.366 163.285 160.343C167.142 160.264 170.983 159.875 174.774 159.18C178.605 158.477 182.38 157.466 186.062 156.144C187.057 155.79 188.045 155.411 189.025 155.009C194.511 152.765 199.753 149.826 204.605 146.206C209.706 142.404 214.38 137.848 218.454 132.567C218.581 132.401 218.708 132.236 218.833 132.07C221.246 128.887 223.352 125.562 225.151 122.132C225.88 120.749 226.559 119.348 227.188 117.932C228.629 114.686 229.813 111.363 230.742 107.994C232.025 103.346 232.822 98.6076 233.148 93.8559C233.372 90.5428 233.367 87.2221 233.135 83.9169ZM97.1542 69.7816H106.978V71.1133C107.121 70.6677 107.271 70.2246 107.426 69.7816C108.478 66.7717 109.794 63.8229 111.375 60.9684C112.378 59.1528 113.493 57.3754 114.712 55.6437C115.188 54.9714 115.68 54.3042 116.186 53.6473C116.436 53.324 116.688 53.003 116.945 52.6873C120.473 48.3023 124.524 44.5693 128.94 41.5059H108.317C107.261 42.6975 106.24 43.9326 105.255 45.2109C100.899 50.8564 97.5232 56.9526 95.0972 63.2932V67.7241C95.0973 68.8598 96.0188 69.7816 97.1542 69.7816Z" fill="#EEF7FD"/>
<path d="M38.5915 210.434L30.7886 203.884C26.5577 200.333 26.1712 193.961 29.9376 189.926L92.8623 122.462L107.979 135.15L100.549 145.013L52.4821 208.849C49.16 213.257 42.8193 213.983 38.5915 210.434Z" fill="white"/>
<path opacity="0.43" d="M100.549 145.013C97.9186 144.347 95.3301 143.45 92.8141 142.321C90.03 141.071 86.7536 141.838 84.7921 144.176L33.0853 205.812L30.7886 203.884C26.5577 200.333 26.1712 193.961 29.9376 189.926L92.8623 122.462L107.979 135.15L100.549 145.013Z" fill="#E3E3E3"/>
<path d="M188.464 23.8551C158.268 -1.49054 113.087 2.46235 87.7488 32.6669C62.4126 62.8684 66.3646 108.061 96.5607 133.407C126.754 158.75 171.934 154.797 197.27 124.596C222.609 94.3913 218.657 49.1983 188.464 23.8551ZM105.436 122.827C81.0726 102.377 77.8841 65.9124 98.3259 41.5451C118.77 17.1746 155.225 13.9852 179.588 34.4354C203.952 54.8854 207.138 91.3474 186.693 115.718C166.251 140.085 129.8 143.277 105.436 122.827Z" fill="white"/>
<path opacity="0.43" d="M182.872 30.5209C156.308 8.22422 116.703 11.6895 94.4121 38.2605C72.1215 64.8316 75.5883 104.445 102.152 126.742C128.716 149.039 168.319 145.576 190.61 119.005C212.9 92.4345 209.436 52.8176 182.872 30.5209ZM105.436 122.827C81.0724 102.377 77.8839 65.9128 98.3257 41.5456C118.77 17.1751 155.225 13.9856 179.588 34.4358C203.952 54.8858 207.137 91.3478 186.693 115.718C166.251 140.085 129.8 143.277 105.436 122.827Z" fill="#E3E3E3"/>
<path d="M62.6396 117.188H52.0938V127.737H62.6396V117.188Z" fill="#B6CDFF"/>
<path d="M54.5366 91.8186H43.9907V102.367H54.5366V91.8186Z" fill="#D7D7D7"/>
<path d="M10.5459 110.9H0V121.448H10.5459V110.9Z" fill="#D7D7D7"/>
<path d="M56.4658 52.3623H45.9199V62.9111H56.4658V52.3623Z" fill="#F5F5F5"/>
<path d="M29.0678 68.0835H18.522V78.6323H29.0678V68.0835Z" fill="#F5F5F5"/>
<path opacity="0.25" d="M61.1278 283.832C76.7526 283.832 89.4191 271.162 89.4191 255.533C89.4191 239.904 76.7526 227.234 61.1278 227.234C45.5029 227.234 32.8364 239.904 32.8364 255.533C32.8364 271.162 45.5029 283.832 61.1278 283.832Z" fill="#2A65BA"/>
<path d="M59.2694 281.233C74.8942 281.233 87.5607 268.563 87.5607 252.934C87.5607 237.304 74.8942 224.635 59.2694 224.635C43.6445 224.635 30.978 237.304 30.978 252.934C30.978 268.563 43.6445 281.233 59.2694 281.233Z" fill="#09436A"/>
<path d="M59.2693 290.063C49.3546 290.063 40.0333 286.2 33.0225 279.188C26.0118 272.175 22.1509 262.851 22.1509 252.934C22.1509 252.485 22.5144 252.121 22.963 252.121C23.4116 252.121 23.7751 252.485 23.7751 252.934C23.7751 272.511 39.6979 288.438 59.2693 288.438C78.8409 288.438 94.7636 272.511 94.7636 252.934C94.7636 233.357 78.8409 217.43 59.2693 217.43C58.8208 217.43 58.4572 217.066 58.4572 216.618C58.4572 216.169 58.8208 215.805 59.2693 215.805C69.184 215.805 78.5053 219.667 85.5161 226.68C92.5268 233.693 96.3877 243.017 96.3877 252.934C96.3877 262.851 92.5268 272.175 85.5161 279.188C78.5053 286.201 69.1842 290.063 59.2693 290.063Z" fill="#2D4651"/>
<path d="M52.4427 265.091L45.8384 258.485L48.5386 255.784L52.4427 259.689L69.9999 242.127L72.7001 244.828L52.4427 265.091Z" fill="white"/>
<path d="M194.436 297.998H59.2692C58.8206 297.998 58.457 297.634 58.457 297.185V289.25C58.457 288.801 58.8207 288.438 59.2692 288.438C59.7176 288.438 60.0813 288.801 60.0813 289.25V296.373H194.436C194.884 296.373 195.248 296.737 195.248 297.185C195.248 297.634 194.884 297.998 194.436 297.998Z" fill="#2D4651"/>
<path d="M168.276 302.528C171.226 302.528 173.618 300.136 173.618 297.185C173.618 294.235 171.226 291.843 168.276 291.843C165.326 291.843 162.935 294.235 162.935 297.185C162.935 300.136 165.326 302.528 168.276 302.528Z" fill="#2D4651"/>
<path d="M347.17 298.936L348.29 301.779L351.66 310.352L354.145 316.665L350.288 330.109C350.288 330.109 346.217 330.851 347.823 329.371C349.433 327.893 347.414 318.567 347.414 318.567C347.414 318.567 346.85 317.575 345.865 315.847C344.636 313.691 342.753 310.388 340.502 306.435C339.964 305.494 339.408 304.515 338.833 303.506L347.17 298.936Z" fill="#FDC8AA"/>
<path d="M349.301 328.449C349.301 328.449 348.429 329.785 347.413 329.149C346.397 328.513 342.322 334.623 345.819 335.24C349.315 335.858 355.328 332.003 355.84 329.748C356.352 327.492 354.906 320.794 356.696 321.713C358.485 322.633 361.215 328.499 361.215 328.499L362.802 327.629C362.802 327.629 358.35 310.54 352.674 312.98C352.674 312.98 353.696 319.817 349.301 328.449Z" fill="black"/>
<path d="M348.289 301.778L351.66 310.351C350.402 311.526 347.522 314.268 345.865 315.846C344.636 313.69 342.753 310.388 340.502 306.435C342.663 305.142 345.684 303.334 348.289 301.778Z" fill="#EFA37D"/>
<path d="M328.827 187.089L330.975 192.983L351.866 188.613C353.31 188.312 354.215 186.87 353.858 185.439L351.251 174.978L350.818 173.237L342.05 176.16L343.408 179.953L344.037 181.714L328.827 187.089Z" fill="#FDC8AA"/>
<path d="M342.05 176.16L343.408 179.954L351.251 174.978L350.818 173.237L342.05 176.16Z" fill="#EFA37D"/>
<path d="M315.539 208.286C315.691 210.963 315.874 213.589 316.081 216.162C316.528 221.697 317.096 226.997 317.763 232.056C318.489 237.583 319.332 242.827 320.259 247.782C328.147 289.997 342.084 311.43 342.084 311.43L352.563 307.682C333.488 275.677 336.101 213.807 335.998 206.934C335.933 202.49 333.564 196.141 331.896 192.206C330.983 190.054 330.282 188.624 330.282 188.624C330.282 188.624 330.114 188.453 329.798 188.174C328.413 186.96 324.207 183.698 318.975 183.763C318.646 183.767 318.345 183.835 318.064 183.96C317.369 184.266 316.815 184.924 316.374 185.833C316.171 186.256 315.991 186.732 315.833 187.255C313.794 194.027 315.539 208.286 315.539 208.286Z" fill="#3F3F3F"/>
<path d="M316.082 216.162C317.017 227.748 318.484 238.291 320.26 247.782C320.301 229.731 325.539 204.062 325.539 204.062C321.484 203.978 318.258 210.151 316.082 216.162Z" fill="#072542"/>
<path d="M313.833 304.305L313.826 307.36L313.801 316.572L313.785 323.357L305.247 334.434C305.247 334.434 301.189 333.623 303.227 332.839C305.269 332.059 306.827 322.644 306.827 322.644C306.827 322.644 306.668 321.514 306.39 319.545C306.041 317.087 305.507 313.323 304.871 308.819C304.717 307.746 304.561 306.631 304.398 305.48L313.833 304.305Z" fill="#FDC8AA"/>
<path d="M304.941 332.527C304.941 332.527 303.638 333.447 302.928 332.482C302.218 331.516 296.179 335.694 299.202 337.557C302.225 339.42 309.235 338.052 310.542 336.144C311.849 334.235 312.972 327.476 314.297 328.99C315.622 330.505 315.998 336.964 315.998 336.964L317.794 336.741C317.794 336.741 319.95 319.213 313.775 319.389C313.775 319.389 312.207 326.122 304.941 332.527Z" fill="black"/>
<path d="M313.826 307.36L313.801 316.572C312.199 317.201 308.511 318.688 306.389 319.544C306.041 317.087 305.507 313.323 304.871 308.819C307.356 308.413 310.83 307.846 313.826 307.36Z" fill="#EFA37D"/>
<path d="M303.85 183.393C303.85 183.393 298.056 196.13 298.876 225.536C299.697 254.942 303.85 313.071 303.85 313.071H315.695C315.695 313.071 309.132 240.581 325.54 204.063C325.54 204.063 329.437 189.394 324.617 186.009C319.797 182.623 303.85 183.393 303.85 183.393Z" fill="#3F3F3F"/>
<path d="M317.68 149.446L326.35 149.403C326.35 149.403 327.38 144.069 328.86 141.203C329.443 140.079 328.793 138.971 327.79 138.039C326.235 136.597 323.829 135.58 323.829 135.58L320.847 139.207C320.847 139.207 321.464 141.002 321.079 143.203C320.913 144.151 320.56 145.173 319.895 146.16C317.68 149.446 317.68 149.446 317.68 149.446Z" fill="#FDC8AA"/>
<path d="M321.079 143.203C322.863 142.58 325.973 141.107 327.79 138.039C326.235 136.597 323.829 135.58 323.829 135.58L320.847 139.207C320.847 139.207 321.464 141.002 321.079 143.203Z" fill="#EFA37D"/>
<path d="M319.471 127C319.471 127 317.78 123.201 319.818 122.075C321.857 120.948 323.646 124.037 323.646 124.037C323.646 124.037 320.831 124.866 319.471 127Z" fill="#262626"/>
<path d="M324.759 122.381C324.759 122.381 320.398 123.3 319.262 126.634C318.368 129.255 316.474 131.64 315.705 132.54C315.509 132.77 315.487 133.101 315.651 133.355L315.771 133.541C316.001 133.897 316.072 134.334 315.96 134.743C315.512 136.385 314.694 140.707 318.65 140.289C323.524 139.774 328.271 136.107 328.271 136.107C328.271 136.107 333.732 125.858 324.759 122.381Z" fill="#FDC8AA"/>
<path d="M318.926 127.507C319.048 127.22 319.161 126.929 319.262 126.633C319.297 126.532 319.333 126.432 319.374 126.335C319.209 125.428 318.884 122.769 320.652 122.553C321.178 122.489 321.736 122.797 322.256 123.356C323.847 125.059 325.095 129.089 324.07 131.884C324.07 131.884 326.314 129.851 327.735 131.287C329.155 132.724 326.17 135.118 324.391 134.943C324.391 134.943 324.653 136.602 325.263 138.018C326.263 140.344 327.967 143.28 329.999 142.546C333.267 141.366 342.802 136.913 337.887 127.962C332.971 119.01 322.343 118.605 319.671 120.967C317.441 122.939 318.17 126.373 318.926 127.507Z" fill="black"/>
<path d="M304.518 183.765L315.833 187.255L326.855 190.652L331.897 192.205C330.984 190.053 330.283 188.623 330.283 188.623C330.283 188.623 330.114 188.453 329.799 188.174L325.904 187.495L316.374 185.833L304.518 183.765Z" fill="#072542"/>
<path d="M305.952 178.417L304.516 183.763L307.812 184.432L330.77 189.085L335.692 168.341L341.985 176.753L351.317 173.647C351.317 173.647 350.964 169.983 349.004 165.43C347.582 162.133 345.318 158.373 341.735 155.197C337.61 151.539 331.734 148.656 323.38 148.156C323.38 148.156 309.753 147.033 305.951 152.436C301.531 158.718 296.518 176.057 296.518 176.057L305.952 178.417Z" fill="#10507B"/>
<path d="M255.19 171.237C255.054 172.466 267.804 172.879 269.546 173.185C269.635 173.2 269.752 173.253 269.895 173.342C270.529 173.727 271.683 174.785 273.171 176.238C277.951 180.887 286.188 189.569 291.901 192.982C296.47 195.714 299.975 192.198 302.118 188.75C303.653 186.277 304.487 183.841 304.515 183.766V183.762L304.622 183.36L305.242 181.055L305.951 178.415L296.516 176.057C296.516 176.057 296.442 176.313 296.306 176.719C295.711 178.518 293.977 183.285 292.723 181.906C291.744 180.827 284.194 176.406 278.848 173.342C278.068 172.893 277.334 172.477 276.675 172.103C274.763 171.016 273.477 170.296 273.477 170.296H259.702C259.702 170.296 255.325 170.004 255.19 171.237Z" fill="#FDC8AA"/>
<path d="M329.42 145.619C329.42 145.619 319.783 146.081 317.183 145.106L317.681 148.618L329.591 149.619L329.42 145.619Z" fill="white"/>
<path d="M304.517 183.764L307.813 184.433L310.824 168.342L305.952 178.418L304.517 183.764Z" fill="#083A5C"/>
<path d="M296.308 176.718L305.242 181.055L305.952 178.417L296.517 176.058C296.517 176.058 296.441 176.312 296.308 176.718Z" fill="#EFA37D"/>
<path d="M341.814 158.642C342.376 163.892 345.508 164.938 349.003 165.43C347.582 162.133 345.317 158.373 341.734 155.197C341.665 156.266 341.683 157.408 341.814 158.642Z" fill="#083A5C"/>
<path d="M337.443 126.564C337.443 126.564 348.045 123.29 353.629 131.406C359.212 139.522 356.864 146.788 360.972 150.498C365.08 154.209 379.936 154.485 378.378 168.023C376.82 181.56 361.625 177.686 358.891 168.222C356.156 158.758 342.634 167.393 341.403 155.905C340.173 144.417 348.852 140.582 345.506 134.665C342.159 128.748 337.316 127.909 337.316 127.909L337.443 126.564Z" fill="black"/>
<path d="M334.726 126.995L336.061 130.491C336.424 131.441 337.488 131.917 338.438 131.554L338.771 131.427C339.721 131.064 340.197 130 339.834 129.049L338.499 125.553C338.136 124.602 337.072 124.126 336.122 124.489L335.789 124.617C334.839 124.98 334.363 126.044 334.726 126.995Z" fill="white"/>
<path d="M255.19 171.237C255.054 172.466 267.804 172.879 269.546 173.185C269.635 173.2 269.752 173.253 269.895 173.342C270.529 173.727 271.683 174.785 273.171 176.238L276.676 172.103C274.763 171.016 273.477 170.296 273.477 170.296H259.702C259.702 170.296 255.325 170.004 255.19 171.237Z" fill="#EFA37D"/>
<path d="M249.946 174.106L280.518 174.171L267.459 154.724H236.931L249.946 174.106Z" fill="#09436A"/>
<path d="M249.947 176.711H293.925V174.107H249.947V176.711Z" fill="#09436A"/>
</svg>
