<svg width="98" height="60" viewBox="0 0 98 60" fill="none" xmlns="http://www.w3.org/2000/svg">
<path fill-rule="evenodd" clip-rule="evenodd" d="M42.6523 31.2924C47.035 34.323 49.72 38.4797 49.72 43.1235C49.72 47.9657 46.8012 52.2785 42.082 55.337C37.6367 58.218 31.5447 60 24.86 60C18.1753 60 12.0834 58.218 7.638 55.337C2.91889 52.2785 0 47.9657 0 43.1235C0 38.4798 2.68503 34.323 7.06763 31.2925C6.7415 32.6544 6.56757 34.0739 6.56757 35.5323V37.5156C5.14928 39.2149 4.34627 41.1247 4.34627 43.1235C4.34627 46.4017 6.50606 49.4406 9.99785 51.7037C13.7634 54.1441 19.015 55.6536 24.8599 55.6536C30.7049 55.6536 35.9564 54.1441 39.722 51.7037C43.2139 49.4406 45.3736 46.4017 45.3736 43.1235C45.3736 41.1246 44.5705 39.2148 43.1523 37.5155V35.5322C43.1524 34.0738 42.9784 32.6543 42.6523 31.2924Z" fill="#09436A"/>
<path fill-rule="evenodd" clip-rule="evenodd" d="M46.399 46.6107L63.4349 51.1436L62.3313 55.3371L45.2954 50.8043L46.399 46.6107Z" fill="#09436A"/>
<path fill-rule="evenodd" clip-rule="evenodd" d="M55.0966 54.7582C53.2438 54.2706 52.1371 52.3733 52.6246 50.5205C53.1121 48.6677 55.0094 47.561 56.8622 48.0484L73.8982 52.5812C75.751 53.0688 76.8577 54.9661 76.3702 56.8189C75.8826 58.6717 73.9853 59.7784 72.1325 59.2909L55.0966 54.7582Z" fill="#09436A"/>
<path fill-rule="evenodd" clip-rule="evenodd" d="M34.7358 22.2693C38.7823 25.2947 41.4138 30.121 41.4138 35.5324V48.0716C40.6215 48.9178 39.6966 49.6485 38.7766 50.2448C34.7682 52.8426 29.5834 53.9151 24.86 53.9151C20.1366 53.9151 14.9518 52.8426 10.9435 50.2448C10.0234 49.6486 9.09847 48.9179 8.30615 48.0717V35.5324C8.30615 30.1211 10.9378 25.2947 14.9841 22.2693C16.9966 24.9753 20.0947 26.8256 23.6339 27.1758L22.3401 29.1164L23.5863 30.8534L21.257 46.7356L24.86 50.8871L28.463 46.7356L26.1338 30.8535L27.3799 29.1165L26.086 27.1759C29.6253 26.8255 32.7234 24.9752 34.7358 22.2693Z" fill="#EB2B3A"/>
<path d="M32.3274 22.4044C36.452 18.2799 36.452 11.5927 32.3274 7.46813C28.2029 3.34359 21.5157 3.34359 17.3911 7.46813C13.2666 11.5927 13.2666 18.2799 17.3911 22.4044C21.5157 26.529 28.2029 26.529 32.3274 22.4044Z" fill="#EB2B3A"/>
<path fill-rule="evenodd" clip-rule="evenodd" d="M54.223 10.9031H48.4856V14.8998H53.7585V17.8703H48.4856V24.1908H44.8193V7.92093H54.2231L54.223 10.9031ZM60.5644 24.1909H56.8981V7.92093H60.5644V24.1909ZM78.8917 24.1909H75.1945L68.4892 13.9666C68.0982 13.3701 67.8233 12.9209 67.6723 12.6188H67.6297C67.6878 13.192 67.7188 14.0711 67.7188 15.2485V24.1909H64.2577V7.92093H68.2066L74.6603 17.8238C74.9545 18.2731 75.2255 18.7146 75.4772 19.1522H75.5237C75.4617 18.7766 75.4308 18.0291 75.4308 16.9176V7.92093H78.8918L78.8917 24.1909ZM82.6083 24.1909V7.92093H88.3728C94.149 7.92093 97.0371 10.5622 97.0371 15.8526C97.0371 18.3854 96.2473 20.4071 94.6716 21.9213C93.0959 23.4356 90.9977 24.1908 88.3728 24.1908L82.6083 24.1909ZM86.2746 10.9031V21.2165H88.0903C89.6776 21.2165 90.9203 20.7401 91.8262 19.7874C92.7283 18.8347 93.1812 17.5373 93.1812 15.8952C93.1812 14.346 92.7321 13.1261 91.8379 12.2392C90.9397 11.3485 89.6854 10.9031 88.0671 10.9031H86.2746Z" fill="#09436A"/>
<path fill-rule="evenodd" clip-rule="evenodd" d="M61.6659 37.4308C61.6659 39.6112 61.1626 41.2766 60.1521 42.4345C59.1456 43.5925 57.6822 44.1695 55.7697 44.1695C54.9141 44.1695 54.1243 44.0224 53.4004 43.728V40.2889C54.0276 40.7653 54.7283 41.0054 55.5104 41.0054C57.179 41.0054 58.0152 39.7622 58.0152 37.2836V27.617H61.6659L61.6659 37.4308ZM73.0914 44.1696C70.7608 44.1696 68.8638 43.4105 67.3966 41.8962C65.9293 40.3781 65.1976 38.4029 65.1976 35.9668C65.1976 33.3952 65.9409 31.3155 67.4314 29.7276C68.9219 28.1398 70.8924 27.3419 73.3508 27.3419C75.6736 27.3419 77.5513 28.1049 78.9837 29.6231C80.4161 31.1451 81.1323 33.1513 81.1323 35.6377C81.1323 38.1938 80.3891 40.258 78.9025 41.8227C77.4196 43.3872 75.4801 44.1696 73.0914 44.1696ZM73.2501 30.4984C71.9648 30.4984 70.9427 30.9786 70.1877 31.9468C69.4328 32.9111 69.0534 34.1854 69.0534 35.7732C69.0534 37.3843 69.4328 38.6585 70.1877 39.5996C70.9427 40.5368 71.9338 41.0054 73.1572 41.0054C74.4231 41.0054 75.4219 40.5484 76.1653 39.6383C76.9048 38.7244 77.2764 37.4618 77.2764 35.843C77.2764 34.1544 76.9164 32.8415 76.2001 31.9042C75.4801 30.9669 74.4967 30.4984 73.2501 30.4984ZM84.8189 43.8869V27.617H90.7422C92.5579 27.617 93.9516 27.95 94.9272 28.6161C95.9027 29.2784 96.3906 30.2195 96.3906 31.4278C96.3906 32.307 96.0925 33.0737 95.5001 33.7321C94.9039 34.3905 94.149 34.8475 93.2238 35.1031V35.1496C94.3813 35.2929 95.3066 35.7227 95.9996 36.4315C96.6886 37.1441 97.0371 38.0077 97.0371 39.0301C97.0371 40.5212 96.5028 41.7024 95.4382 42.5777C94.3697 43.449 92.914 43.8867 91.0712 43.8867H84.8189V43.8869ZM88.4852 30.3164V34.1738H90.0956C90.8506 34.1738 91.4468 33.9918 91.8803 33.6238C92.3178 33.2559 92.5346 32.7524 92.5346 32.1095C92.5346 30.9128 91.6404 30.3164 89.8556 30.3164H88.4852ZM88.4852 36.8963V41.1875H90.4712C91.3152 41.1875 91.9811 40.9899 92.4611 40.5949C92.9412 40.2037 93.1812 39.6654 93.1812 38.9838C93.1812 38.3331 92.945 37.8258 92.4727 37.454C91.9965 37.0822 91.3383 36.8963 90.4905 36.8963H88.4852Z" fill="#EB2B3A"/>
</svg>
