<svg width="192" height="98" viewBox="0 0 192 98" fill="none" xmlns="http://www.w3.org/2000/svg">
<path d="M82.3271 70.4502C76.3742 70.4503 71.548 75.2765 71.5479 81.2295C71.5479 87.1826 76.3741 92.0086 82.3271 92.0088C84.8651 92.0088 87.1965 91.1288 89.0381 89.6611L95.8672 96.4404C96.2525 96.9518 96.8631 97.2842 97.5527 97.2842C98.7184 97.2839 99.6639 96.3386 99.6641 95.1729C99.6639 94.5349 99.3799 93.9632 98.9326 93.5762L98.9404 93.5664L91.7822 86.4072C92.6256 84.8704 93.1064 83.1062 93.1064 81.2295C93.1063 75.2765 88.2802 70.4503 82.3271 70.4502ZM82.3271 74.7676C85.8959 74.7677 88.7889 77.6607 88.7891 81.2295C88.7891 84.7984 86.0073 87.3407 82.4385 87.3408C78.8696 87.3408 75.8652 84.7984 75.8652 81.2295C75.8654 77.6608 78.7584 74.7677 82.3271 74.7676Z" fill="#09436A"/>
<path d="M55 92.5526V65H60.8253V87.7498H72.6375V92.5526H55Z" fill="#09436A"/>
<path d="M106.85 92.9555C104.733 92.9555 102.913 92.507 101.388 91.6101C99.8721 90.7043 98.7062 89.4486 97.89 87.8432C97.0828 86.2377 96.6792 84.3901 96.6792 82.3004C96.6792 80.1837 97.0873 78.3271 97.9035 76.7306C98.7286 75.1252 99.8991 73.874 101.415 72.9771C102.931 72.0713 104.733 71.6183 106.823 71.6183C108.626 71.6183 110.204 71.9457 111.559 72.6004C112.913 73.2552 113.985 74.1745 114.774 75.3584C115.563 76.5423 115.998 77.9325 116.079 79.5289H110.671C110.518 78.4975 110.115 77.6679 109.46 77.0401C108.814 76.4033 107.967 76.0849 106.917 76.0849C106.029 76.0849 105.254 76.327 104.59 76.8113C103.935 77.2867 103.424 77.9818 103.056 78.8966C102.688 79.8115 102.505 80.9191 102.505 82.2196C102.505 83.5381 102.684 84.6592 103.043 85.583C103.41 86.5068 103.926 87.2109 104.59 87.6952C105.254 88.1795 106.029 88.4217 106.917 88.4217C107.572 88.4217 108.159 88.2871 108.68 88.0181C109.209 87.749 109.644 87.3588 109.985 86.8476C110.334 86.3274 110.563 85.7041 110.671 84.9776H116.079C115.989 86.5561 115.559 87.9463 114.788 89.1482C114.025 90.341 112.971 91.2738 111.626 91.9465C110.281 92.6191 108.689 92.9555 106.85 92.9555Z" fill="#09436A"/>
<path d="M125.641 92.942C124.323 92.942 123.148 92.7133 122.116 92.2559C121.085 91.7895 120.269 91.1034 119.668 90.1975C119.076 89.2827 118.78 88.1436 118.78 86.7803C118.78 85.6323 118.991 84.6682 119.412 83.8879C119.834 83.1076 120.408 82.4797 121.134 82.0044C121.861 81.529 122.686 81.1703 123.61 80.9281C124.542 80.6859 125.52 80.5155 126.542 80.4169C127.744 80.2913 128.713 80.1747 129.448 80.0671C130.184 79.9505 130.718 79.7801 131.049 79.5558C131.381 79.3316 131.547 78.9998 131.547 78.5603V78.4796C131.547 77.6275 131.278 76.9683 130.74 76.5019C130.211 76.0355 129.457 75.8023 128.48 75.8023C127.448 75.8023 126.628 76.031 126.018 76.4885C125.408 76.9369 125.004 77.502 124.807 78.1836L119.506 77.7531C119.775 76.4974 120.305 75.4122 121.094 74.4974C121.883 73.5736 122.901 72.865 124.148 72.3717C125.403 71.8695 126.856 71.6183 128.507 71.6183C129.655 71.6183 130.753 71.7529 131.803 72.0219C132.861 72.291 133.798 72.708 134.615 73.2731C135.44 73.8381 136.09 74.5646 136.565 75.4526C137.041 76.3315 137.278 77.3854 137.278 78.6141V92.5519H131.843V89.6863H131.682C131.35 90.3321 130.906 90.9016 130.35 91.3949C129.794 91.8792 129.126 92.2604 128.345 92.5384C127.565 92.8075 126.664 92.942 125.641 92.942ZM127.282 88.9867C128.125 88.9867 128.87 88.8208 129.516 88.4889C130.161 88.1481 130.668 87.6907 131.036 87.1167C131.404 86.5427 131.588 85.8924 131.588 85.1659V82.973C131.408 83.0896 131.161 83.1972 130.848 83.2959C130.543 83.3856 130.197 83.4708 129.812 83.5515C129.426 83.6233 129.04 83.6905 128.655 83.7533C128.269 83.8071 127.919 83.8565 127.605 83.9013C126.933 84 126.345 84.1569 125.843 84.3722C125.341 84.5874 124.95 84.8789 124.672 85.2467C124.394 85.6054 124.255 86.0539 124.255 86.592C124.255 87.3723 124.538 87.9687 125.103 88.3813C125.677 88.7849 126.403 88.9867 127.282 88.9867Z" fill="#09436A"/>
<path d="M152.716 71.8874V76.1925H140.272V71.8874H152.716ZM143.097 66.9365H148.828V86.2019C148.828 86.731 148.909 87.1436 149.07 87.4396C149.232 87.7266 149.456 87.9284 149.743 88.045C150.039 88.1616 150.38 88.2199 150.765 88.2199C151.034 88.2199 151.304 88.1974 151.573 88.1526C151.842 88.0988 152.048 88.0584 152.191 88.0315L153.093 92.2963C152.806 92.3859 152.402 92.4891 151.882 92.6057C151.362 92.7313 150.73 92.8075 149.985 92.8344C148.604 92.8882 147.393 92.7043 146.353 92.2828C145.321 91.8613 144.519 91.2065 143.945 90.3186C143.37 89.4307 143.088 88.3096 143.097 86.9552V66.9365Z" fill="#09436A"/>
<path d="M165.564 92.9555C163.474 92.9555 161.667 92.5115 160.142 91.6236C158.627 90.7267 157.456 89.48 156.631 87.8835C155.806 86.2781 155.393 84.417 155.393 82.3004C155.393 80.1657 155.806 78.3002 156.631 76.7037C157.456 75.0983 158.627 73.8516 160.142 72.9637C161.667 72.0668 163.474 71.6183 165.564 71.6183C167.654 71.6183 169.457 72.0668 170.972 72.9637C172.497 73.8516 173.672 75.0983 174.497 76.7037C175.322 78.3002 175.735 80.1657 175.735 82.3004C175.735 84.417 175.322 86.2781 174.497 87.8835C173.672 89.48 172.497 90.7267 170.972 91.6236C169.457 92.5115 167.654 92.9555 165.564 92.9555ZM165.591 88.5158C166.542 88.5158 167.336 88.2468 167.972 87.7086C168.609 87.1615 169.089 86.4171 169.412 85.4754C169.744 84.5336 169.91 83.4618 169.91 82.26C169.91 81.0582 169.744 79.9864 169.412 79.0446C169.089 78.1029 168.609 77.3585 167.972 76.8113C167.336 76.2642 166.542 75.9907 165.591 75.9907C164.631 75.9907 163.824 76.2642 163.169 76.8113C162.524 77.3585 162.035 78.1029 161.703 79.0446C161.38 79.9864 161.219 81.0582 161.219 82.26C161.219 83.4618 161.38 84.5336 161.703 85.4754C162.035 86.4171 162.524 87.1615 163.169 87.7086C163.824 88.2468 164.631 88.5158 165.591 88.5158Z" fill="#09436A"/>
<path d="M179.462 92.5519V71.8874H185.018V75.4929H185.233C185.61 74.2104 186.242 73.2417 187.13 72.587C188.018 71.9233 189.04 71.5914 190.197 71.5914C190.484 71.5914 190.794 71.6094 191.126 71.6452C191.458 71.6811 191.749 71.7304 192 71.7932V76.8786C191.731 76.7979 191.359 76.7261 190.884 76.6634C190.408 76.6006 189.973 76.5692 189.579 76.5692C188.735 76.5692 187.982 76.7531 187.318 77.1208C186.664 77.4795 186.143 77.9818 185.758 78.6276C185.381 79.2733 185.193 80.0178 185.193 80.8608V92.5519H179.462Z" fill="#09436A"/>
<path d="M5 5V59.3529H23.2239L40.8955 41.2353M40.8955 41.2353L22.1194 39.5882M40.8955 41.2353L42 61" stroke="#EB2B3A" stroke-width="9" stroke-miterlimit="11.4737" stroke-linecap="round"/>
<path d="M67.5761 60C64.139 60 61.1806 59.2762 58.7007 57.8287C56.2353 56.3661 54.3355 54.3003 53.0013 51.6314C51.6671 48.9474 51 45.7733 51 42.1092C51 38.5356 51.6671 35.3993 53.0013 32.7002C54.3355 30.0011 56.2136 27.8977 58.6354 26.3898C61.0718 24.8819 63.9288 24.128 67.2063 24.128C69.4106 24.128 71.4627 24.4974 73.3625 25.2363C75.2768 25.9601 76.9445 27.0533 78.3658 28.5159C79.8015 29.9785 80.9182 31.8181 81.7158 34.0346C82.5134 36.2361 82.9122 38.8146 82.9122 41.77V44.4163H54.6981V38.4451H74.1891C74.1891 37.0579 73.8991 35.829 73.319 34.7584C72.7389 33.6878 71.934 32.851 70.9043 32.2478C69.8892 31.6296 68.7073 31.3205 67.3585 31.3205C65.9518 31.3205 64.7046 31.6598 63.617 32.3383C62.5438 33.0018 61.7027 33.8989 61.0936 35.0298C60.4845 36.1457 60.1727 37.3896 60.1582 38.7618V44.4389C60.1582 46.1578 60.4627 47.6431 61.0718 48.8946C61.6954 50.1461 62.5728 51.1112 63.704 51.7897C64.8352 52.4682 66.1766 52.8075 67.7284 52.8075C68.758 52.8075 69.7007 52.6567 70.5563 52.3551C71.4119 52.0536 72.1443 51.6012 72.7534 50.9981C73.3625 50.3949 73.8266 49.6561 74.1456 48.7815L82.7164 49.3696C82.2814 51.5107 81.3895 53.3805 80.0408 54.9788C78.7066 56.5621 76.9808 57.7985 74.8635 58.6882C72.7606 59.5627 70.3315 60 67.5761 60Z" fill="#09436A"/>
<path d="M98.4876 59.9774C96.3558 59.9774 94.456 59.5929 92.7883 58.8239C91.1205 58.0398 89.8008 56.8863 88.8291 55.3633C87.872 53.8253 87.3934 51.9103 87.3934 49.6184C87.3934 47.6883 87.7342 46.0674 88.4158 44.7555C89.0974 43.4437 90.0256 42.3882 91.2003 41.589C92.3749 40.7899 93.7091 40.1867 95.2029 39.7796C96.7111 39.3725 98.2919 39.086 99.9451 38.9201C101.888 38.709 103.455 38.513 104.644 38.332C105.833 38.136 106.696 37.8495 107.232 37.4726C107.769 37.0956 108.037 36.5377 108.037 35.7988V35.6631C108.037 34.2307 107.602 33.1224 106.732 32.3383C105.877 31.5542 104.658 31.1622 103.078 31.1622C101.41 31.1622 100.083 31.5467 99.0967 32.3157C98.1106 33.0696 97.458 34.0196 97.1389 35.1655L88.5681 34.4418C89.0032 32.3308 89.8588 30.5063 91.135 28.9682C92.4112 27.4151 94.0572 26.2239 96.073 25.3946C98.1033 24.5502 100.453 24.128 103.121 24.128C104.977 24.128 106.754 24.3542 108.451 24.8065C110.162 25.2589 111.677 25.9601 112.997 26.91C114.331 27.86 115.383 29.0813 116.151 30.5741C116.92 32.0518 117.304 33.8235 117.304 35.8893V59.3215H108.516V54.5038H108.255C107.718 55.5895 107 56.547 106.101 57.3763C105.202 58.1906 104.122 58.8314 102.86 59.2988C101.598 59.7512 100.141 59.9774 98.4876 59.9774ZM101.142 53.3277C102.505 53.3277 103.708 53.0488 104.753 52.4909C105.797 51.9179 106.616 51.1489 107.211 50.1838C107.805 49.2188 108.103 48.1256 108.103 46.9042V43.2175C107.813 43.4135 107.414 43.5945 106.906 43.7603C106.413 43.9111 105.855 44.0544 105.231 44.1901C104.608 44.3107 103.984 44.4238 103.36 44.5294C102.737 44.6198 102.171 44.7028 101.664 44.7782C100.576 44.944 99.6261 45.2079 98.8139 45.5698C98.0018 45.9317 97.371 46.4217 96.9214 47.0399C96.4718 47.6431 96.247 48.397 96.247 49.3017C96.247 50.6136 96.7039 51.6163 97.6175 52.3099C98.5456 52.9884 99.7203 53.3277 101.142 53.3277Z" fill="#09436A"/>
<path d="M136.806 59.8869C134.268 59.8869 131.97 59.2084 129.91 57.8513C127.866 56.4791 126.241 54.4662 125.038 51.8123C123.848 49.1434 123.254 45.8713 123.254 41.9961C123.254 38.0154 123.87 34.7056 125.103 32.0669C126.336 29.4131 127.974 27.4302 130.019 26.1184C132.078 24.7915 134.334 24.128 136.784 24.128C138.655 24.128 140.214 24.4597 141.461 25.1232C142.723 25.7716 143.738 26.5858 144.507 27.5659C145.29 28.531 145.885 29.4809 146.291 30.4158H146.573V13H155.819V59.3215H146.682V53.7575H146.291C145.856 54.7225 145.239 55.68 144.442 56.6299C143.659 57.5648 142.636 58.3414 141.374 58.9596C140.127 59.5778 138.604 59.8869 136.806 59.8869ZM139.743 52.2194C141.237 52.2194 142.498 51.7972 143.528 50.9528C144.572 50.0934 145.37 48.8946 145.921 47.3566C146.486 45.8186 146.769 44.0167 146.769 41.9509C146.769 39.8851 146.494 38.0908 145.943 36.5679C145.392 35.0449 144.594 33.8688 143.55 33.0395C142.506 32.2101 141.237 31.7955 139.743 31.7955C138.22 31.7955 136.937 32.2252 135.893 33.0847C134.848 33.9442 134.058 35.1354 133.521 36.6583C132.985 38.1813 132.717 39.9455 132.717 41.9509C132.717 43.9714 132.985 45.7583 133.521 47.3114C134.073 48.8494 134.863 50.0557 135.893 50.9302C136.937 51.7897 138.22 52.2194 139.743 52.2194Z" fill="#09436A"/>
<path d="M191.239 34.487L182.755 35.0298C182.61 34.2759 182.298 33.5974 181.819 32.9942C181.341 32.376 180.71 31.8859 179.927 31.5241C179.158 31.1471 178.237 30.9586 177.164 30.9586C175.728 30.9586 174.518 31.2753 173.531 31.9086C172.545 32.5268 172.052 33.3561 172.052 34.3965C172.052 35.2259 172.371 35.927 173.009 36.5C173.647 37.073 174.742 37.5329 176.294 37.8797L182.341 39.1463C185.59 39.8399 188.012 40.9557 189.607 42.4937C191.202 44.0318 192 46.0523 192 48.5553C192 50.8322 191.355 52.8301 190.064 54.5491C188.788 56.268 187.033 57.61 184.8 58.5751C182.581 59.525 180.021 60 177.121 60C172.697 60 169.173 59.0425 166.549 57.1275C163.938 55.1975 162.408 52.5738 161.959 49.2565L171.073 48.7589C171.349 50.1612 172.016 51.2318 173.075 51.9706C174.133 52.6944 175.489 53.0563 177.142 53.0563C178.767 53.0563 180.072 52.7321 181.058 52.0837C182.059 51.4203 182.566 50.5683 182.581 49.5279C182.566 48.6534 182.211 47.9371 181.515 47.3792C180.819 46.8062 179.746 46.3689 178.295 46.0674L172.509 44.8686C169.246 44.1901 166.817 43.014 165.222 41.3402C163.641 39.6665 162.85 37.5329 162.85 34.9394C162.85 32.7077 163.431 30.7852 164.591 29.1718C165.765 27.5584 167.411 26.3144 169.529 25.4398C171.661 24.5653 174.155 24.128 177.012 24.128C181.232 24.128 184.553 25.0553 186.975 26.91C189.411 28.7647 190.833 31.2903 191.239 34.487Z" fill="#09436A"/>
</svg>
