<svg width="85" height="85" viewBox="0 0 85 85" fill="none" xmlns="http://www.w3.org/2000/svg">
<path d="M83.6005 72.6345L67.0763 56.1103C66.4278 55.462 65.377 55.462 64.7283 56.1103L64.0007 56.8379L59.4158 52.2531C62.091 48.59 64.0052 44.3929 64.9807 39.9439C65.1772 39.0482 64.6105 38.163 63.7148 37.9666C62.8187 37.7709 61.9338 38.337 61.7376 39.2326C58.7906 52.6703 46.6511 62.4234 32.8721 62.4234C16.5775 62.4234 3.32048 49.1665 3.32048 32.8718C3.32048 16.577 16.5772 3.32031 32.8719 3.32031C47.049 3.32031 59.2581 13.4117 61.9021 27.3154C62.0734 28.216 62.9422 28.8075 63.8431 28.6362C64.7439 28.4649 65.3351 27.5958 65.164 26.6951C62.2223 11.227 48.6414 0 32.8719 0C14.7462 0 0 14.7462 0 32.8719C0 50.9977 14.7462 65.7439 32.8719 65.7439C39.8338 65.7439 46.6469 63.5109 52.245 59.4278L56.828 64.0108L56.1003 64.7385C55.452 65.3867 55.452 66.438 56.1003 67.0864L72.6245 83.6106C73.5509 84.5368 74.7676 85 75.9845 85C77.2011 85 78.4178 84.5368 79.3442 83.6106L83.6005 79.3543C85.4529 77.5017 85.4529 74.4872 83.6005 72.6345ZM54.8378 57.3249C55.7082 56.5416 56.5343 55.714 57.3131 54.8466L61.6527 59.1862L59.1759 61.663L54.8378 57.3249ZM81.2524 77.0065L76.9961 81.2628C76.4379 81.821 75.5301 81.8206 74.9723 81.2628L59.6222 65.9127L65.9022 59.6325L81.2524 74.9825C81.8103 75.5406 81.8103 76.4485 81.2524 77.0065Z" fill="#09436A"/>
<path d="M23.5569 23.9069H16.4971C15.5804 23.9069 14.837 24.6501 14.837 25.567C14.837 26.4839 15.5804 27.2272 16.4971 27.2272H18.3668V36.0585C18.3668 37.0895 17.5281 37.9282 16.4971 37.9282C15.4662 37.9282 14.6274 37.0895 14.6274 36.0585C14.6274 35.1416 13.884 34.3984 12.9673 34.3984C12.0505 34.3984 11.3071 35.1416 11.3071 36.0585C11.3071 38.9203 13.6353 41.2487 16.4973 41.2487C19.3592 41.2487 21.6874 38.9205 21.6874 36.0585V27.2272H23.5571C24.4738 27.2272 25.2172 26.4839 25.2172 25.567C25.2172 24.6501 24.4738 23.9069 23.5569 23.9069Z" fill="#09436A"/>
<path d="M33.2924 23.9069C28.5112 23.9069 24.6216 27.7966 24.6216 32.5777C24.6216 37.3588 28.5115 41.2487 33.2926 41.2487C38.0737 41.2487 41.9636 37.3588 41.9636 32.5777C41.9636 27.7966 38.0737 23.9069 33.2924 23.9069ZM33.2924 37.9284C30.3421 37.9284 27.9417 35.5281 27.9417 32.5777C27.9417 29.6274 30.342 27.2272 33.2924 27.2272C36.2428 27.2272 38.6431 29.6274 38.6431 32.5777C38.6431 35.528 36.2427 37.9284 33.2924 37.9284Z" fill="#09436A"/>
<path d="M54.4365 29.2194C54.4367 26.2901 52.0534 23.9067 49.124 23.9067H45.7166C44.7998 23.9067 44.0564 24.65 44.0564 25.5669V32.8717V40.1766C44.0564 41.0935 44.7998 41.8368 45.7166 41.8368H49.1239C52.0532 41.8368 54.4365 39.4536 54.4365 36.5241C54.4365 35.1101 53.8802 33.8247 52.9764 32.8716C53.8802 31.919 54.4365 30.6335 54.4365 29.2194ZM49.124 38.5166H47.3769V34.5321H49.1239C50.2224 34.5321 51.116 35.4257 51.116 36.5243C51.1162 37.6229 50.2225 38.5166 49.124 38.5166ZM49.1239 31.2118H47.3769V27.2272H49.1239C50.2224 27.2272 51.116 28.1209 51.116 29.2194C51.116 30.3179 50.2224 31.2118 49.1239 31.2118Z" fill="#09436A"/>
<path d="M64.0837 31.2115C63.167 31.2115 62.4236 31.955 62.4236 32.8719L62.4232 32.9899C62.4197 33.9068 63.16 34.6531 64.0769 34.6565C64.0792 34.6565 64.0812 34.6565 64.0836 34.6565C64.9973 34.6565 65.7401 33.9174 65.7435 33.0029L65.7439 32.8717C65.7439 31.9548 65.0005 31.2115 64.0837 31.2115Z" fill="#09436A"/>
<path d="M50.2323 15.5115C40.6597 5.9392 25.0841 5.9392 15.5115 15.5115C14.8632 16.1598 14.8632 17.211 15.5115 17.8593C16.1598 18.5077 17.2107 18.5077 17.8594 17.8593C26.1373 9.58158 39.6063 9.58158 47.8845 17.8593C48.2088 18.1835 48.6336 18.3455 49.0584 18.3455C49.4834 18.3455 49.9081 18.1834 50.2323 17.8593C50.8806 17.2112 50.8806 16.1598 50.2323 15.5115Z" fill="#09436A"/>
<path d="M17.8926 47.9174L17.8597 47.8844C17.2109 47.2361 16.1601 47.2361 15.5116 47.8844C14.8633 48.5327 14.8633 49.5839 15.5116 50.2324C15.5131 50.2337 15.5256 50.2461 15.5269 50.2475L15.5345 50.2549C15.8592 50.5815 16.2861 50.745 16.7132 50.745C17.1359 50.745 17.5589 50.5847 17.8823 50.2636C18.5328 49.6181 18.5377 48.5682 17.8926 47.9174Z" fill="#09436A"/>
<path d="M50.2323 47.8843C49.584 47.2362 48.5331 47.2361 47.8844 47.8843C41.1278 54.6409 30.6237 56.0507 22.3409 51.3134C21.5448 50.8582 20.5308 51.1343 20.0754 51.9303C19.6202 52.7262 19.8964 53.7404 20.6923 54.1956C24.482 56.3629 28.6729 57.4178 32.8387 57.4178C39.2041 57.4178 45.51 54.9545 50.2325 50.2323C50.8808 49.5842 50.8808 48.5328 50.2323 47.8843Z" fill="#09436A"/>
</svg>
