<svg width="24" height="24" viewBox="0 0 24 24" fill="none" xmlns="http://www.w3.org/2000/svg">
<path d="M19 4.00049H18V2.00049H16V4.00049H8V2.00049H6V4.00049H5C3.89 4.00049 3.01 4.90049 3.01 6.00049L3 20.0005C3 21.1005 3.89 22.0005 5 22.0005H19C20.1 22.0005 21 21.1005 21 20.0005V6.00049C21 4.90049 20.1 4.00049 19 4.00049ZM19 20.0005H5V10.0005H19V20.0005ZM19 8.00049H5V6.00049H19V8.00049ZM9 14.0005H7V12.0005H9V14.0005ZM13 14.0005H11V12.0005H13V14.0005ZM17 14.0005H15V12.0005H17V14.0005ZM9 18.0005H7V16.0005H9V18.0005ZM13 18.0005H11V16.0005H13V18.0005ZM17 18.0005H15V16.0005H17V18.0005Z" fill="black"/>
</svg>
