<svg width="51" height="51" viewBox="0 0 51 51" fill="none" xmlns="http://www.w3.org/2000/svg">
<g filter="url(#filter0_d_2194_1178)">
<circle cx="25.3535" cy="25" r="20" fill="#F5F5F5"/>
<circle cx="25.3535" cy="25" r="19" stroke="url(#paint0_linear_2194_1178)" stroke-width="2"/>
</g>
<path d="M19.8935 18C19.9535 18.89 20.1035 19.76 20.3435 20.59L19.1435 21.79C18.7335 20.59 18.4735 19.32 18.3835 18H19.8935ZM29.7535 30.02C30.6035 30.26 31.4735 30.41 32.3535 30.47V31.96C31.0335 31.87 29.7635 31.61 28.5535 31.21L29.7535 30.02ZM20.8535 16H17.3535C16.8035 16 16.3535 16.45 16.3535 17C16.3535 26.39 23.9635 34 33.3535 34C33.9035 34 34.3535 33.55 34.3535 33V29.51C34.3535 28.96 33.9035 28.51 33.3535 28.51C32.1135 28.51 30.9035 28.31 29.7835 27.94C29.6835 27.9 29.5735 27.89 29.4735 27.89C29.2135 27.89 28.9635 27.99 28.7635 28.18L26.5635 30.38C23.7335 28.93 21.4135 26.62 19.9735 23.79L22.1735 21.59C22.4535 21.31 22.5335 20.92 22.4235 20.57C22.0535 19.45 21.8535 18.25 21.8535 17C21.8535 16.45 21.4035 16 20.8535 16Z" fill="#999999"/>
<defs>
<filter id="filter0_d_2194_1178" x="0.353516" y="0.5" width="50" height="50" filterUnits="userSpaceOnUse" color-interpolation-filters="sRGB">
<feFlood flood-opacity="0" result="BackgroundImageFix"/>
<feColorMatrix in="SourceAlpha" type="matrix" values="0 0 0 0 0 0 0 0 0 0 0 0 0 0 0 0 0 0 127 0" result="hardAlpha"/>
<feMorphology radius="1" operator="dilate" in="SourceAlpha" result="effect1_dropShadow_2194_1178"/>
<feOffset dy="0.5"/>
<feGaussianBlur stdDeviation="2"/>
<feComposite in2="hardAlpha" operator="out"/>
<feColorMatrix type="matrix" values="0 0 0 0 0 0 0 0 0 0 0 0 0 0 0 0 0 0 0.18 0"/>
<feBlend mode="normal" in2="BackgroundImageFix" result="effect1_dropShadow_2194_1178"/>
<feBlend mode="normal" in="SourceGraphic" in2="effect1_dropShadow_2194_1178" result="shape"/>
</filter>
<linearGradient id="paint0_linear_2194_1178" x1="19.3535" y1="2.5" x2="25.3535" y2="45" gradientUnits="userSpaceOnUse">
<stop stop-color="#999999"/>
<stop offset="1" stop-color="#999999" stop-opacity="0"/>
</linearGradient>
</defs>
</svg>
