<svg width="25" height="25" viewBox="0 0 25 25" fill="none" xmlns="http://www.w3.org/2000/svg">
<path d="M4.5 13.3264C5.6 13.3264 6.5 12.4264 6.5 11.3264C6.5 10.2264 5.6 9.32642 4.5 9.32642C3.4 9.32642 2.5 10.2264 2.5 11.3264C2.5 12.4264 3.4 13.3264 4.5 13.3264ZM5.63 14.4264C5.26 14.3664 4.89 14.3264 4.5 14.3264C3.51 14.3264 2.57 14.5364 1.72 14.9064C0.98 15.2264 0.5 15.9464 0.5 16.7564V18.3264H5V16.7164C5 15.8864 5.23 15.1064 5.63 14.4264ZM20.5 13.3264C21.6 13.3264 22.5 12.4264 22.5 11.3264C22.5 10.2264 21.6 9.32642 20.5 9.32642C19.4 9.32642 18.5 10.2264 18.5 11.3264C18.5 12.4264 19.4 13.3264 20.5 13.3264ZM24.5 16.7564C24.5 15.9464 24.02 15.2264 23.28 14.9064C22.43 14.5364 21.49 14.3264 20.5 14.3264C20.11 14.3264 19.74 14.3664 19.37 14.4264C19.77 15.1064 20 15.8864 20 16.7164V18.3264H24.5V16.7564ZM16.74 13.9764C15.57 13.4564 14.13 13.0764 12.5 13.0764C10.87 13.0764 9.43 13.4664 8.26 13.9764C7.18 14.4564 6.5 15.5364 6.5 16.7164V18.3264H18.5V16.7164C18.5 15.5364 17.82 14.4564 16.74 13.9764ZM8.57 16.3264C8.66 16.0964 8.7 15.9364 9.48 15.6364C10.45 15.2564 11.47 15.0764 12.5 15.0764C13.53 15.0764 14.55 15.2564 15.52 15.6364C16.29 15.9364 16.33 16.0964 16.43 16.3264H8.57ZM12.5 8.32642C13.05 8.32642 13.5 8.77642 13.5 9.32642C13.5 9.87642 13.05 10.3264 12.5 10.3264C11.95 10.3264 11.5 9.87642 11.5 9.32642C11.5 8.77642 11.95 8.32642 12.5 8.32642ZM12.5 6.32642C10.84 6.32642 9.5 7.66642 9.5 9.32642C9.5 10.9864 10.84 12.3264 12.5 12.3264C14.16 12.3264 15.5 10.9864 15.5 9.32642C15.5 7.66642 14.16 6.32642 12.5 6.32642Z" fill="black"/>
</svg>
