<svg width="51" height="51" viewBox="0 0 51 51" fill="none" xmlns="http://www.w3.org/2000/svg">
<g filter="url(#filter0_d_2194_1183)">
<circle cx="25.6852" cy="25" r="20" fill="#F5F5F5"/>
<circle cx="25.6852" cy="25" r="19" stroke="url(#paint0_linear_2194_1183)" stroke-width="2"/>
</g>
<path d="M18.6852 16C17.5802 16 16.6852 16.895 16.6852 18V32C16.6852 33.105 17.5802 34 18.6852 34H32.6852C33.7902 34 34.6852 33.105 34.6852 32V18C34.6852 16.895 33.7902 16 32.6852 16H18.6852ZM18.6852 18H32.6852V32H18.6852V18ZM21.4645 19.3164C20.6075 19.3164 20.0934 19.8316 20.0934 20.5176C20.0934 21.2036 20.6075 21.7168 21.3785 21.7168C22.2355 21.7168 22.7496 21.2036 22.7496 20.5176C22.7496 19.8316 22.2355 19.3164 21.4645 19.3164ZM20.1617 23V30H22.6852V23H20.1617ZM24.7672 23V30H27.2906V26.1738C27.2906 25.0348 28.1033 24.8711 28.3473 24.8711C28.5913 24.8711 29.2438 25.1158 29.2438 26.1738V30H31.6852V26.1738C31.6852 23.9768 30.7089 23 29.4879 23C28.2669 23 27.6156 23.4066 27.2906 23.9766V23H24.7672Z" fill="#999999"/>
<defs>
<filter id="filter0_d_2194_1183" x="0.685181" y="0.5" width="50" height="50" filterUnits="userSpaceOnUse" color-interpolation-filters="sRGB">
<feFlood flood-opacity="0" result="BackgroundImageFix"/>
<feColorMatrix in="SourceAlpha" type="matrix" values="0 0 0 0 0 0 0 0 0 0 0 0 0 0 0 0 0 0 127 0" result="hardAlpha"/>
<feMorphology radius="1" operator="dilate" in="SourceAlpha" result="effect1_dropShadow_2194_1183"/>
<feOffset dy="0.5"/>
<feGaussianBlur stdDeviation="2"/>
<feComposite in2="hardAlpha" operator="out"/>
<feColorMatrix type="matrix" values="0 0 0 0 0 0 0 0 0 0 0 0 0 0 0 0 0 0 0.18 0"/>
<feBlend mode="normal" in2="BackgroundImageFix" result="effect1_dropShadow_2194_1183"/>
<feBlend mode="normal" in="SourceGraphic" in2="effect1_dropShadow_2194_1183" result="shape"/>
</filter>
<linearGradient id="paint0_linear_2194_1183" x1="19.6852" y1="2.5" x2="25.6852" y2="45" gradientUnits="userSpaceOnUse">
<stop stop-color="#999999"/>
<stop offset="1" stop-color="#999999" stop-opacity="0"/>
</linearGradient>
</defs>
</svg>
