<svg width="100" height="100" viewBox="0 0 100 100" fill="none" xmlns="http://www.w3.org/2000/svg">
<path d="M55.7576 44.7413C57.7335 43.1825 59.0054 40.7693 59.0054 38.063C59.0054 33.373 55.19 29.5576 50.5001 29.5576C45.8104 29.5576 41.995 33.373 41.995 38.063C41.995 40.7693 43.2669 43.1824 45.2428 44.7412C39.8071 46.694 35.755 51.5962 35.1077 57.6434C35.0663 58.0302 35.1912 58.4163 35.4512 58.7056C35.7111 58.9949 36.0818 59.1603 36.4708 59.1603H64.529C64.918 59.1603 65.2887 58.9951 65.5487 58.7056C65.8086 58.4163 65.9336 58.0302 65.8921 57.6434C65.245 51.5964 61.1931 46.6943 55.7576 44.7413ZM44.7369 38.063C44.7369 34.885 47.3222 32.2995 50.5001 32.2995C53.678 32.2995 56.2635 34.885 56.2635 38.063C56.2635 41.2397 53.6799 43.8245 50.5035 43.8262C50.5023 43.8262 50.5011 43.8262 50.5001 43.8262C50.4989 43.8262 50.4979 43.8262 50.4967 43.8262C47.3203 43.8245 44.7369 41.2397 44.7369 38.063ZM38.0884 56.4185C39.4016 50.7082 44.4906 46.5699 50.4965 46.5682C50.4977 46.5682 50.4989 46.5683 50.5001 46.5683C50.5013 46.5683 50.5025 46.5682 50.5037 46.5682C56.5094 46.5699 61.5982 50.7082 62.9114 56.4185H38.0884ZM16.004 17.991C16.004 17.2338 16.6179 16.62 17.375 16.62H31.2824C32.0395 16.62 32.6534 17.2338 32.6534 17.991C32.6534 18.7481 32.0395 19.3619 31.2824 19.3619H17.375C16.6177 19.3619 16.004 18.7481 16.004 17.991ZM31.2822 29.9061H17.375C16.6179 29.9061 16.004 29.2923 16.004 28.5352C16.004 27.778 16.6179 27.1642 17.375 27.1642H31.2824C32.0395 27.1642 32.6534 27.778 32.6534 28.5352C32.6534 29.2923 32.0395 29.9061 31.2822 29.9061ZM16.004 23.2631C16.004 22.5059 16.6179 21.8921 17.375 21.8921H31.2824C32.0395 21.8921 32.6534 22.5059 32.6534 23.2631C32.6534 24.0202 32.0395 24.634 31.2824 24.634H17.375C16.6177 24.634 16.004 24.0202 16.004 23.2631ZM88.4198 7H64.916C62.3906 7 60.3361 9.05458 60.3361 11.5801V15.8612C57.1536 14.9316 53.8538 14.4595 50.5001 14.4595C46.5858 14.4595 42.7569 15.0994 39.0978 16.359C36.4772 10.8319 30.8439 7 24.3316 7C15.3263 7 8 14.3265 8 23.3318C8 29.8441 11.8318 35.4775 17.3587 38.0981C16.0991 41.7572 15.4594 45.586 15.4594 49.5003C15.4594 57.0286 17.8843 64.3328 22.3312 70.3409L19.6002 70.3356C19.5992 70.3356 19.598 70.3356 19.597 70.3356C18.8131 70.3356 18.1241 70.8362 17.8819 71.5818C17.6394 72.3287 17.9039 73.1396 18.5398 73.5996L22.0692 76.1535L20.715 80.2941C20.4708 81.0404 20.7337 81.852 21.3691 82.3139C22.0042 82.775 22.857 82.7743 23.4916 82.3116L27.0112 79.7441L30.531 82.3118C30.8487 82.5435 31.2211 82.6592 31.5935 82.6592C31.9648 82.6592 32.336 82.544 32.653 82.3137C33.2885 81.8522 33.5514 81.0406 33.3072 80.2941L33.2026 79.9741C36.5214 81.8577 40.1406 83.1939 43.8838 83.9123L42.0909 89.3945C41.8219 90.2165 42.1113 91.1106 42.811 91.6189C43.5107 92.1273 44.45 92.1265 45.149 91.6166L50.4999 87.7138L55.851 91.6173C56.2009 91.8725 56.6112 92 57.0213 92C57.4303 92 57.8392 91.8732 58.1883 91.6196C58.8883 91.1111 59.178 90.217 58.9089 89.3951L57.1167 83.9148C60.4586 83.2787 63.6494 82.1715 66.6506 80.606C66.5585 81.258 66.8284 81.9158 67.376 82.3137C67.6932 82.5442 68.0645 82.6594 68.4361 82.6594C68.8086 82.6594 69.1812 82.5435 69.4987 82.3116L73.0182 79.7443L76.5376 82.3116C77.172 82.7747 78.0251 82.7755 78.6604 82.3137C79.2957 81.852 79.5585 81.0406 79.3143 80.2944L77.9602 76.1537L81.4897 73.5998C82.1255 73.1395 82.3899 72.3287 82.1476 71.5822C81.9055 70.8362 81.2166 70.3358 80.4331 70.3358C80.4317 70.3358 80.4303 70.3358 80.4291 70.3358L78.6707 70.3392C83.1181 64.3311 85.5407 57.0364 85.5407 49.5005C85.5407 43.4065 83.9784 37.4906 81.003 32.2437H88.42C90.9453 32.2437 93 30.1891 93 27.6636V11.5801C92.9998 9.05458 90.9453 7 88.4198 7ZM10.7419 23.3318C10.7419 15.8384 16.8383 9.74196 24.3316 9.74196C31.8251 9.74196 37.9213 15.8384 37.9213 23.3318C37.9213 26.2928 36.986 29.1069 35.2164 31.4697C34.9643 31.8063 34.8807 32.2401 34.9895 32.6464L36.44 38.0599L29.4614 36.1899C29.3451 36.1587 29.2258 36.1432 29.1067 36.1432C28.9588 36.1432 28.8111 36.1672 28.6694 36.2149C27.2758 36.6839 25.8164 36.9218 24.3316 36.9218C16.8383 36.9218 10.7419 30.8254 10.7419 23.3318ZM28.0738 77.1256C27.7561 76.8937 27.3839 76.778 27.0113 76.778C26.639 76.778 26.2664 76.8939 25.9485 77.1257L24.225 78.3829L24.8884 76.3549C25.1326 75.607 24.8685 74.7947 24.2315 74.3341L22.5033 73.0834L24.6367 73.0875H24.6399C25.4253 73.0875 26.1149 72.5857 26.356 71.8382L27.0113 69.8081L27.6665 71.838C27.9078 72.5857 28.5972 73.0877 29.3829 73.0877H29.3862L31.5194 73.0836L29.7913 74.3339C29.1538 74.7951 28.8897 75.6076 29.1345 76.3556L29.7975 78.3833L28.0738 77.1256ZM51.6705 85.1737C51.3204 84.9184 50.9102 84.7907 50.4999 84.7907C50.0898 84.7907 49.6794 84.9184 49.3295 85.1737L45.4249 88.0221L46.9272 83.4285C47.1966 82.6049 46.9059 81.7101 46.2038 81.202L42.2883 78.3687L47.1212 78.378H47.1255C47.9904 78.378 48.7495 77.8255 49.0153 77.002L50.4999 72.4024L51.9847 77.0018C52.2505 77.8253 53.0095 78.3778 53.8742 78.3778H53.8785L58.7117 78.3685L54.796 81.202C54.0941 81.7101 53.8034 82.6049 54.0728 83.4285L55.5751 88.0221L51.6705 85.1737ZM75.7983 74.3336C75.161 74.7946 74.8969 75.6069 75.1413 76.3552L75.8045 78.3828L74.081 77.1256C73.4454 76.662 72.5913 76.6618 71.9555 77.1256L70.232 78.3828L70.8951 76.3552C71.1396 75.6074 70.8757 74.7951 70.2384 74.3337L68.5101 73.0831L70.643 73.0872H70.6469C71.432 73.0872 72.1214 72.5856 72.3629 71.8379L73.018 69.8078L73.6733 71.8382C73.915 72.5857 74.604 73.0872 75.3888 73.0872H75.3927L77.5261 73.0831L75.7983 74.3336ZM82.7987 49.5003C82.7987 56.8049 80.3299 63.8636 75.8179 69.5552L74.7343 66.1982C74.493 65.451 73.8034 64.9489 73.0182 64.9489C72.2333 64.9489 71.5437 65.4508 71.3021 66.1982L69.9638 70.344L65.6078 70.3356C65.6064 70.3356 65.605 70.3356 65.6038 70.3356C64.82 70.3356 64.1311 70.8362 63.8889 71.5818C63.6464 72.3285 63.9109 73.1395 64.5468 73.5996L68.0762 76.1535L67.8915 76.7186C65.7432 78.0954 63.474 79.2007 61.1016 80.0236L62.2158 79.2173C62.9164 78.7104 63.2077 77.8172 62.9406 76.9943C62.6736 76.1731 61.9149 75.6219 61.0515 75.6219C61.0503 75.6219 61.049 75.6219 61.0479 75.6219L54.4248 75.6346L52.3903 69.3317C52.3903 69.3317 52.3903 69.3317 52.3903 69.3316C52.1245 68.5086 51.365 67.9558 50.5003 67.9558C49.6355 67.9558 48.8758 68.5088 48.61 69.3317L46.5755 75.6346L39.9524 75.6219C39.9512 75.6219 39.95 75.6219 39.9488 75.6219C39.0854 75.6219 38.3266 76.1732 38.0599 76.9943C37.7926 77.8169 38.0838 78.7103 38.7845 79.2172L39.8662 79.9998C37.1186 79.0405 34.4996 77.7105 32.1017 76.0464L35.4832 73.5994C36.119 73.1391 36.3834 72.3283 36.1409 71.5817C35.8988 70.8359 35.2097 70.3355 34.4257 70.3355C34.4247 70.3355 34.4235 70.3355 34.4224 70.3355L30.066 70.3439L28.7278 66.1984C28.4867 65.451 27.7971 64.9487 27.0117 64.9487C26.2263 64.9487 25.5367 65.4508 25.2956 66.198L24.5002 68.662C20.4237 63.1335 18.2014 56.4198 18.2014 49.5003C18.2014 45.9161 18.7825 42.4103 19.9272 39.0597C21.329 39.4528 22.8061 39.6636 24.3316 39.6636C25.9723 39.6636 27.5885 39.4212 29.1422 38.9428L38.024 41.3228C38.1412 41.3542 38.2603 41.3694 38.3787 41.3694C38.7375 41.3694 39.0877 41.2284 39.3481 40.9679C39.6945 40.6215 39.8299 40.1167 39.7031 39.6437L37.8058 32.5633C39.6775 29.8403 40.6632 26.6631 40.6632 23.3318C40.6632 21.8062 40.4523 20.329 40.0593 18.9273C43.41 17.7826 46.9157 17.2013 50.5001 17.2013C53.8638 17.2013 57.1676 17.7156 60.3361 18.7277V27.6634C60.3361 30.1887 62.3906 32.2435 64.916 32.2435H66.2605V37.4095C66.2605 37.969 66.6005 38.4724 67.1196 38.6813C67.2857 38.7481 67.4591 38.7805 67.6312 38.7805C67.9972 38.7805 68.3564 38.6338 68.6201 38.3593L74.4951 32.2435H77.8063C81.0743 37.4028 82.7987 43.3529 82.7987 49.5003ZM90.2579 27.6636C90.2579 28.6771 89.4333 29.5017 88.4198 29.5017H73.9109C73.5378 29.5017 73.1806 29.6539 72.9222 29.9229L69.0023 34.0035V30.8727C69.0023 30.1156 68.3884 29.5017 67.6313 29.5017H64.9158C63.9023 29.5017 63.0778 28.6771 63.0778 27.6636V11.5801C63.0778 10.5666 63.9023 9.74196 64.9158 9.74196H88.4198C89.4333 9.74196 90.2579 10.5666 90.2579 11.5801V27.6636ZM86.4603 14.5846C86.4603 15.3417 85.8465 15.9556 85.0894 15.9556H67.96C67.2029 15.9556 66.589 15.3417 66.589 14.5846C66.589 13.8275 67.2029 13.2136 67.96 13.2136H85.0894C85.8466 13.2136 86.4603 13.8273 86.4603 14.5846ZM86.4603 19.6769C86.4603 20.4341 85.8465 21.0479 85.0894 21.0479H67.96C67.2029 21.0479 66.589 20.4341 66.589 19.6769C66.589 18.9198 67.2029 18.3059 67.96 18.3059H85.0894C85.8466 18.3059 86.4603 18.9196 86.4603 19.6769ZM86.4603 24.7693C86.4603 25.5264 85.8465 26.1402 85.0894 26.1402H67.96C67.2029 26.1402 66.589 25.5264 66.589 24.7693C66.589 24.0121 67.2029 23.3983 67.96 23.3983H85.0894C85.8466 23.3983 86.4603 24.0121 86.4603 24.7693Z" fill="#09436A"/>
</svg>
