<svg width="280" height="51" viewBox="0 0 280 51" fill="none" xmlns="http://www.w3.org/2000/svg">
<g filter="url(#filter0_d_2171_81)">
<circle cx="25.0186" cy="25" r="20" fill="#F5F5F5"/>
<circle cx="25.0186" cy="25" r="19" stroke="url(#paint0_linear_2171_81)" stroke-width="2"/>
</g>
<path d="M33.0186 17H17.0186C15.9186 17 15.0286 17.9 15.0286 19L15.0186 31C15.0186 32.1 15.9186 33 17.0186 33H33.0186C34.1186 33 35.0186 32.1 35.0186 31V19C35.0186 17.9 34.1186 17 33.0186 17ZM33.0186 31H17.0186V21L25.0186 26L33.0186 21V31ZM25.0186 24L17.0186 19H33.0186L25.0186 24Z" fill="#999999"/>
<g filter="url(#filter1_d_2171_81)">
<circle cx="101.352" cy="25" r="20" fill="#F5F5F5"/>
<circle cx="101.352" cy="25" r="19" stroke="url(#paint1_linear_2171_81)" stroke-width="2"/>
</g>
<path d="M95.8919 18C95.9519 18.89 96.1019 19.76 96.3419 20.59L95.1419 21.79C94.7319 20.59 94.4719 19.32 94.3819 18H95.8919ZM105.752 30.02C106.602 30.26 107.472 30.41 108.352 30.47V31.96C107.032 31.87 105.762 31.61 104.552 31.21L105.752 30.02ZM96.8519 16H93.3519C92.8019 16 92.3519 16.45 92.3519 17C92.3519 26.39 99.9619 34 109.352 34C109.902 34 110.352 33.55 110.352 33V29.51C110.352 28.96 109.902 28.51 109.352 28.51C108.112 28.51 106.902 28.31 105.782 27.94C105.682 27.9 105.572 27.89 105.472 27.89C105.212 27.89 104.962 27.99 104.762 28.18L102.562 30.38C99.7319 28.93 97.4119 26.62 95.9719 23.79L98.1719 21.59C98.4519 21.31 98.5319 20.92 98.4219 20.57C98.0519 19.45 97.8519 18.25 97.8519 17C97.8519 16.45 97.4019 16 96.8519 16Z" fill="#999999"/>
<g filter="url(#filter2_d_2171_81)">
<circle cx="177.685" cy="25" r="20" fill="#F5F5F5"/>
<circle cx="177.685" cy="25" r="19" stroke="url(#paint2_linear_2171_81)" stroke-width="2"/>
</g>
<path d="M170.685 16C169.58 16 168.685 16.895 168.685 18V32C168.685 33.105 169.58 34 170.685 34H184.685C185.79 34 186.685 33.105 186.685 32V18C186.685 16.895 185.79 16 184.685 16H170.685ZM170.685 18H184.685V32H170.685V18ZM173.464 19.3164C172.607 19.3164 172.093 19.8316 172.093 20.5176C172.093 21.2036 172.608 21.7168 173.379 21.7168C174.236 21.7168 174.75 21.2036 174.75 20.5176C174.75 19.8316 174.235 19.3164 173.464 19.3164ZM172.162 23V30H174.685V23H172.162ZM176.767 23V30H179.291V26.1738C179.291 25.0348 180.103 24.8711 180.347 24.8711C180.591 24.8711 181.244 25.1158 181.244 26.1738V30H183.685V26.1738C183.685 23.9768 182.709 23 181.488 23C180.267 23 179.616 23.4066 179.291 23.9766V23H176.767Z" fill="#999999"/>
<g filter="url(#filter3_d_2171_81)">
<circle cx="254.019" cy="25" r="20" fill="#F5F5F5"/>
<circle cx="254.019" cy="25" r="19" stroke="url(#paint3_linear_2171_81)" stroke-width="2"/>
</g>
<path d="M260.019 15C258.374 15 257.019 16.355 257.019 18C257.019 18.191 257.04 18.3771 257.075 18.5586L249.94 22.7207C249.417 22.2779 248.751 22 248.019 22C246.374 22 245.019 23.355 245.019 25C245.019 26.645 246.374 28 248.019 28C248.751 28 249.417 27.7221 249.94 27.2793L257.075 31.4395C257.04 31.6215 257.019 31.8084 257.019 32C257.019 33.645 258.374 35 260.019 35C261.664 35 263.019 33.645 263.019 32C263.019 30.355 261.664 29 260.019 29C259.286 29 258.62 29.2793 258.097 29.7227L250.962 25.5586C250.997 25.3771 251.019 25.191 251.019 25C251.019 24.809 250.997 24.6229 250.962 24.4414L258.097 20.2793C258.62 20.7221 259.286 21 260.019 21C261.664 21 263.019 19.645 263.019 18C263.019 16.355 261.664 15 260.019 15ZM260.019 17C260.583 17 261.019 17.4359 261.019 18C261.019 18.5641 260.583 19 260.019 19C259.454 19 259.019 18.5641 259.019 18C259.019 17.4359 259.454 17 260.019 17ZM248.019 24C248.583 24 249.019 24.4359 249.019 25C249.019 25.5641 248.583 26 248.019 26C247.454 26 247.019 25.5641 247.019 25C247.019 24.4359 247.454 24 248.019 24ZM260.019 31C260.583 31 261.019 31.4359 261.019 32C261.019 32.5641 260.583 33 260.019 33C259.454 33 259.019 32.5641 259.019 32C259.019 31.4359 259.454 31 260.019 31Z" fill="#999999"/>
<defs>
<filter id="filter0_d_2171_81" x="0.0185547" y="0.5" width="50" height="50" filterUnits="userSpaceOnUse" color-interpolation-filters="sRGB">
<feFlood flood-opacity="0" result="BackgroundImageFix"/>
<feColorMatrix in="SourceAlpha" type="matrix" values="0 0 0 0 0 0 0 0 0 0 0 0 0 0 0 0 0 0 127 0" result="hardAlpha"/>
<feMorphology radius="1" operator="dilate" in="SourceAlpha" result="effect1_dropShadow_2171_81"/>
<feOffset dy="0.5"/>
<feGaussianBlur stdDeviation="2"/>
<feComposite in2="hardAlpha" operator="out"/>
<feColorMatrix type="matrix" values="0 0 0 0 0 0 0 0 0 0 0 0 0 0 0 0 0 0 0.18 0"/>
<feBlend mode="normal" in2="BackgroundImageFix" result="effect1_dropShadow_2171_81"/>
<feBlend mode="normal" in="SourceGraphic" in2="effect1_dropShadow_2171_81" result="shape"/>
</filter>
<filter id="filter1_d_2171_81" x="76.3519" y="0.5" width="50" height="50" filterUnits="userSpaceOnUse" color-interpolation-filters="sRGB">
<feFlood flood-opacity="0" result="BackgroundImageFix"/>
<feColorMatrix in="SourceAlpha" type="matrix" values="0 0 0 0 0 0 0 0 0 0 0 0 0 0 0 0 0 0 127 0" result="hardAlpha"/>
<feMorphology radius="1" operator="dilate" in="SourceAlpha" result="effect1_dropShadow_2171_81"/>
<feOffset dy="0.5"/>
<feGaussianBlur stdDeviation="2"/>
<feComposite in2="hardAlpha" operator="out"/>
<feColorMatrix type="matrix" values="0 0 0 0 0 0 0 0 0 0 0 0 0 0 0 0 0 0 0.18 0"/>
<feBlend mode="normal" in2="BackgroundImageFix" result="effect1_dropShadow_2171_81"/>
<feBlend mode="normal" in="SourceGraphic" in2="effect1_dropShadow_2171_81" result="shape"/>
</filter>
<filter id="filter2_d_2171_81" x="152.685" y="0.5" width="50" height="50" filterUnits="userSpaceOnUse" color-interpolation-filters="sRGB">
<feFlood flood-opacity="0" result="BackgroundImageFix"/>
<feColorMatrix in="SourceAlpha" type="matrix" values="0 0 0 0 0 0 0 0 0 0 0 0 0 0 0 0 0 0 127 0" result="hardAlpha"/>
<feMorphology radius="1" operator="dilate" in="SourceAlpha" result="effect1_dropShadow_2171_81"/>
<feOffset dy="0.5"/>
<feGaussianBlur stdDeviation="2"/>
<feComposite in2="hardAlpha" operator="out"/>
<feColorMatrix type="matrix" values="0 0 0 0 0 0 0 0 0 0 0 0 0 0 0 0 0 0 0.18 0"/>
<feBlend mode="normal" in2="BackgroundImageFix" result="effect1_dropShadow_2171_81"/>
<feBlend mode="normal" in="SourceGraphic" in2="effect1_dropShadow_2171_81" result="shape"/>
</filter>
<filter id="filter3_d_2171_81" x="229.019" y="0.5" width="50" height="50" filterUnits="userSpaceOnUse" color-interpolation-filters="sRGB">
<feFlood flood-opacity="0" result="BackgroundImageFix"/>
<feColorMatrix in="SourceAlpha" type="matrix" values="0 0 0 0 0 0 0 0 0 0 0 0 0 0 0 0 0 0 127 0" result="hardAlpha"/>
<feMorphology radius="1" operator="dilate" in="SourceAlpha" result="effect1_dropShadow_2171_81"/>
<feOffset dy="0.5"/>
<feGaussianBlur stdDeviation="2"/>
<feComposite in2="hardAlpha" operator="out"/>
<feColorMatrix type="matrix" values="0 0 0 0 0 0 0 0 0 0 0 0 0 0 0 0 0 0 0.18 0"/>
<feBlend mode="normal" in2="BackgroundImageFix" result="effect1_dropShadow_2171_81"/>
<feBlend mode="normal" in="SourceGraphic" in2="effect1_dropShadow_2171_81" result="shape"/>
</filter>
<linearGradient id="paint0_linear_2171_81" x1="19.0186" y1="2.5" x2="25.0186" y2="45" gradientUnits="userSpaceOnUse">
<stop stop-color="#999999"/>
<stop offset="1" stop-color="#999999" stop-opacity="0"/>
</linearGradient>
<linearGradient id="paint1_linear_2171_81" x1="95.3519" y1="2.5" x2="101.352" y2="45" gradientUnits="userSpaceOnUse">
<stop stop-color="#999999"/>
<stop offset="1" stop-color="#999999" stop-opacity="0"/>
</linearGradient>
<linearGradient id="paint2_linear_2171_81" x1="171.685" y1="2.5" x2="177.685" y2="45" gradientUnits="userSpaceOnUse">
<stop stop-color="#999999"/>
<stop offset="1" stop-color="#999999" stop-opacity="0"/>
</linearGradient>
<linearGradient id="paint3_linear_2171_81" x1="248.019" y1="2.5" x2="254.019" y2="45" gradientUnits="userSpaceOnUse">
<stop stop-color="#999999"/>
<stop offset="1" stop-color="#999999" stop-opacity="0"/>
</linearGradient>
</defs>
</svg>
