<svg width="24" height="25" viewBox="0 0 24 25" fill="none" xmlns="http://www.w3.org/2000/svg">
<rect x="0.5" y="1" width="23" height="23" rx="11.5" fill="white"/>
<rect x="0.5" y="1" width="23" height="23" rx="11.5" stroke="#BABABA"/>
<g clip-path="url(#clip0_2672_620)">
<path d="M6.59992 12.5001C6.59992 11.3601 7.52659 10.4334 8.66658 10.4334H11.3333V9.16675H8.66658C6.82659 9.16675 5.33325 10.6601 5.33325 12.5001C5.33325 14.3401 6.82659 15.8334 8.66658 15.8334H11.3333V14.5667H8.66658C7.52659 14.5667 6.59992 13.6401 6.59992 12.5001ZM9.33325 13.1667H14.6666V11.8334H9.33325V13.1667ZM15.3333 9.16675H12.6666V10.4334H15.3333C16.4733 10.4334 17.3999 11.3601 17.3999 12.5001C17.3999 13.6401 16.4733 14.5667 15.3333 14.5667H12.6666V15.8334H15.3333C17.1733 15.8334 18.6666 14.3401 18.6666 12.5001C18.6666 10.6601 17.1733 9.16675 15.3333 9.16675Z" fill="black"/>
</g>
<defs>
<clipPath id="clip0_2672_620">
<rect width="16" height="16" fill="white" transform="translate(4 4.5)"/>
</clipPath>
</defs>
</svg>
