<svg width="51" height="51" viewBox="0 0 51 51" fill="none" xmlns="http://www.w3.org/2000/svg">
<g filter="url(#filter0_d_2194_1173)">
<circle cx="25.0195" cy="25" r="20" fill="#F5F5F5"/>
<circle cx="25.0195" cy="25" r="19" stroke="url(#paint0_linear_2194_1173)" stroke-width="2"/>
</g>
<path d="M33.0195 17H17.0195C15.9195 17 15.0295 17.9 15.0295 19L15.0195 31C15.0195 32.1 15.9195 33 17.0195 33H33.0195C34.1195 33 35.0195 32.1 35.0195 31V19C35.0195 17.9 34.1195 17 33.0195 17ZM33.0195 31H17.0195V21L25.0195 26L33.0195 21V31ZM25.0195 24L17.0195 19H33.0195L25.0195 24Z" fill="#999999"/>
<defs>
<filter id="filter0_d_2194_1173" x="0.0195312" y="0.5" width="50" height="50" filterUnits="userSpaceOnUse" color-interpolation-filters="sRGB">
<feFlood flood-opacity="0" result="BackgroundImageFix"/>
<feColorMatrix in="SourceAlpha" type="matrix" values="0 0 0 0 0 0 0 0 0 0 0 0 0 0 0 0 0 0 127 0" result="hardAlpha"/>
<feMorphology radius="1" operator="dilate" in="SourceAlpha" result="effect1_dropShadow_2194_1173"/>
<feOffset dy="0.5"/>
<feGaussianBlur stdDeviation="2"/>
<feComposite in2="hardAlpha" operator="out"/>
<feColorMatrix type="matrix" values="0 0 0 0 0 0 0 0 0 0 0 0 0 0 0 0 0 0 0.18 0"/>
<feBlend mode="normal" in2="BackgroundImageFix" result="effect1_dropShadow_2194_1173"/>
<feBlend mode="normal" in="SourceGraphic" in2="effect1_dropShadow_2194_1173" result="shape"/>
</filter>
<linearGradient id="paint0_linear_2194_1173" x1="19.0195" y1="2.5" x2="25.0195" y2="45" gradientUnits="userSpaceOnUse">
<stop stop-color="#999999"/>
<stop offset="1" stop-color="#999999" stop-opacity="0"/>
</linearGradient>
</defs>
</svg>
