<svg width="40" height="40" viewBox="0 0 40 40" fill="none" xmlns="http://www.w3.org/2000/svg">
<path d="M19.9996 29.2316C20.599 29.2316 21.1017 29.0346 21.5079 28.6408C21.9126 28.2483 22.115 27.7615 22.115 27.1803H17.8842C17.8842 27.7615 18.0873 28.2483 18.4935 28.6408C18.8982 29.0346 19.4003 29.2316 19.9996 29.2316ZM12.5958 26.1546H27.4035C27.6855 26.1546 27.9323 26.0521 28.1439 25.8469C28.3554 25.6418 28.4612 25.4025 28.4612 25.129C28.4612 24.8555 28.3554 24.6162 28.1439 24.411C27.9323 24.2059 27.6855 24.1034 27.4035 24.1034H26.3458V19.2828C26.3458 17.7786 25.9227 16.411 25.0765 15.1803C24.2304 13.9495 23.0669 13.1632 21.5862 12.8213V12.3085C21.5862 11.864 21.4367 11.4962 21.1377 11.2049C20.8373 10.915 20.458 10.77 19.9996 10.77C19.5413 10.77 19.1626 10.915 18.8637 11.2049C18.5633 11.4962 18.4131 11.864 18.4131 12.3085V12.8213C16.9323 13.1632 15.7689 13.9495 14.9227 15.1803C14.0765 16.411 13.6535 17.7786 13.6535 19.2828V24.1034H12.5958C12.3137 24.1034 12.0669 24.2059 11.8554 24.411C11.6439 24.6162 11.5381 24.8555 11.5381 25.129C11.5381 25.4025 11.6439 25.6418 11.8554 25.8469C12.0669 26.0521 12.3137 26.1546 12.5958 26.1546Z" fill="#999999"/>
<rect x="0.5" y="0.5" width="39" height="39" rx="19.5" stroke="#999999"/>
</svg>
