<svg width="25" height="25" viewBox="0 0 25 25" fill="none" xmlns="http://www.w3.org/2000/svg">
<g clip-path="url(#clip0_2799_38)">
<path d="M6.5 15.3263C5.67 15.3263 4.92 15.6663 4.38 16.2063C3.2 17.3863 2.5 22.3263 2.5 22.3263C2.5 22.3263 7.44 21.6264 8.62 20.4464C9.16 19.9064 9.5 19.1563 9.5 18.3263C9.5 16.6663 8.16 15.3263 6.5 15.3263ZM7.21 19.0363C6.93 19.3163 5.04 19.7963 5.04 19.7963C5.04 19.7963 5.51 17.9163 5.8 17.6263C5.97 17.4363 6.22 17.3263 6.5 17.3263C7.05 17.3263 7.5 17.7763 7.5 18.3263C7.5 18.6063 7.39 18.8563 7.21 19.0363ZM17.92 13.9763C24.28 7.61635 22.16 2.66635 22.16 2.66635C22.16 2.66635 17.21 0.546349 10.85 6.90635L8.36 6.40635C7.71 6.27635 7.03 6.48635 6.55 6.95635L2.5 11.0163L7.5 13.1563L11.67 17.3263L13.81 22.3263L17.86 18.2763C18.33 17.8063 18.54 17.1263 18.41 16.4663L17.92 13.9763ZM7.91 11.1563L6 10.3363L7.97 8.36635L9.41 8.65635C8.84 9.48635 8.33 10.3563 7.91 11.1563ZM14.49 18.8263L13.67 16.9163C14.47 16.4963 15.34 15.9863 16.16 15.4163L16.45 16.8563L14.49 18.8263ZM16.5 12.5663C15.18 13.8863 13.12 14.9663 12.46 15.2963L9.53 12.3663C9.85 11.7163 10.93 9.65635 12.26 8.32635C16.94 3.64635 20.49 4.33635 20.49 4.33635C20.49 4.33635 21.18 7.88635 16.5 12.5663ZM15.5 11.3263C16.6 11.3263 17.5 10.4263 17.5 9.32635C17.5 8.22635 16.6 7.32635 15.5 7.32635C14.4 7.32635 13.5 8.22635 13.5 9.32635C13.5 10.4263 14.4 11.3263 15.5 11.3263Z" fill="black"/>
</g>
<defs>
<clipPath id="clip0_2799_38">
<rect width="24" height="24" fill="white" transform="translate(0.5 0.326416)"/>
</clipPath>
</defs>
</svg>
