<svg width="25" height="25" viewBox="0 0 25 25" fill="none" xmlns="http://www.w3.org/2000/svg">
<path d="M22.3034 14.5984L19.9976 12.8554C20.0407 12.5194 20.0838 12.1834 20.0838 11.8264C20.0838 11.4694 20.0623 11.1334 19.9976 10.7974L22.2819 9.05442C22.4758 8.88642 22.5405 8.61342 22.4112 8.38242L20.2562 4.74942C20.1269 4.51842 19.8468 4.43442 19.5882 4.51842L16.916 5.56842C16.3558 5.14842 15.7524 4.79142 15.0843 4.53942L14.6749 1.76742C14.6533 1.51542 14.4163 1.32642 14.1577 1.32642H9.84777C9.58918 1.32642 9.35213 1.51542 9.30903 1.76742L8.89959 4.53942C8.2531 4.81242 7.62817 5.14842 7.06788 5.56842L4.39573 4.51842C4.15868 4.43442 3.87854 4.51842 3.72769 4.74942L1.57273 8.38242C1.44343 8.61342 1.48653 8.88642 1.70203 9.05442L3.98629 10.7974C3.94319 11.1334 3.92164 11.4694 3.92164 11.8264C3.92164 12.1834 3.94319 12.5194 3.98629 12.8554L1.70203 14.5984C1.50808 14.7664 1.44343 15.0394 1.57273 15.2704L3.72769 18.9034C3.85699 19.1344 4.13713 19.2184 4.39573 19.1344L7.06788 18.0844C7.62817 18.5044 8.23155 18.8614 8.89959 19.1134L9.30903 21.8854C9.35213 22.1374 9.56763 22.3264 9.84777 22.3264H14.1577C14.4163 22.3264 14.6533 22.1374 14.6964 21.8854L15.1059 19.1134C15.7524 18.8404 16.3773 18.5044 16.916 18.0844L19.6097 19.1344C19.8468 19.2184 20.1269 19.1344 20.2778 18.9034L22.4327 15.2704C22.562 15.0394 22.4974 14.7664 22.3034 14.5984ZM12.0027 14.9764C10.2141 14.9764 8.77029 13.5694 8.77029 11.8264C8.77029 10.0834 10.2141 8.67642 12.0027 8.67642C13.7913 8.67642 15.2352 10.0834 15.2352 11.8264C15.2352 13.5694 13.7913 14.9764 12.0027 14.9764Z" fill="black"/>
</svg>
