<svg width="24" height="25" viewBox="0 0 24 25" fill="none" xmlns="http://www.w3.org/2000/svg">
<circle cx="12" cy="12.5" r="11.5" fill="white" stroke="#CACACA"/>
<g clip-path="url(#clip0_2672_631)">
<path d="M15.5 14.8801C15.0567 14.8801 14.66 15.0551 14.3567 15.3292L10.1975 12.9084C10.2267 12.7742 10.25 12.6401 10.25 12.5001C10.25 12.3601 10.2267 12.2259 10.1975 12.0917L14.31 9.69425C14.625 9.98591 15.0392 10.1667 15.5 10.1667C16.4683 10.1667 17.25 9.38508 17.25 8.41675C17.25 7.44841 16.4683 6.66675 15.5 6.66675C14.5317 6.66675 13.75 7.44841 13.75 8.41675C13.75 8.55675 13.7733 8.69091 13.8025 8.82508L9.69 11.2226C9.375 10.9309 8.96083 10.7501 8.5 10.7501C7.53167 10.7501 6.75 11.5317 6.75 12.5001C6.75 13.4684 7.53167 14.2501 8.5 14.2501C8.96083 14.2501 9.375 14.0692 9.69 13.7776L13.8433 16.2042C13.8142 16.3267 13.7967 16.4551 13.7967 16.5834C13.7967 17.5226 14.5608 18.2867 15.5 18.2867C16.4392 18.2867 17.2033 17.5226 17.2033 16.5834C17.2033 15.6442 16.4392 14.8801 15.5 14.8801ZM15.5 7.83341C15.8208 7.83341 16.0833 8.09591 16.0833 8.41675C16.0833 8.73758 15.8208 9.00008 15.5 9.00008C15.1792 9.00008 14.9167 8.73758 14.9167 8.41675C14.9167 8.09591 15.1792 7.83341 15.5 7.83341ZM8.5 13.0834C8.17917 13.0834 7.91667 12.8209 7.91667 12.5001C7.91667 12.1792 8.17917 11.9167 8.5 11.9167C8.82083 11.9167 9.08333 12.1792 9.08333 12.5001C9.08333 12.8209 8.82083 13.0834 8.5 13.0834ZM15.5 17.1784C15.1792 17.1784 14.9167 16.9159 14.9167 16.5951C14.9167 16.2742 15.1792 16.0117 15.5 16.0117C15.8208 16.0117 16.0833 16.2742 16.0833 16.5951C16.0833 16.9159 15.8208 17.1784 15.5 17.1784Z" fill="black"/>
</g>
<defs>
<clipPath id="clip0_2672_631">
<rect width="14" height="14" fill="white" transform="translate(5 5.5)"/>
</clipPath>
</defs>
</svg>
