<svg width="25" height="25" viewBox="0 0 25 25" fill="none" xmlns="http://www.w3.org/2000/svg">
<g clip-path="url(#clip0_2799_49)">
<path d="M17.5 7.32642H13.5V9.32642H17.5C19.15 9.32642 20.5 10.6764 20.5 12.3264C20.5 13.9764 19.15 15.3264 17.5 15.3264H13.5V17.3264H17.5C20.26 17.3264 22.5 15.0864 22.5 12.3264C22.5 9.56642 20.26 7.32642 17.5 7.32642ZM11.5 15.3264H7.5C5.85 15.3264 4.5 13.9764 4.5 12.3264C4.5 10.6764 5.85 9.32642 7.5 9.32642H11.5V7.32642H7.5C4.74 7.32642 2.5 9.56642 2.5 12.3264C2.5 15.0864 4.74 17.3264 7.5 17.3264H11.5V15.3264ZM8.5 11.3264H16.5V13.3264H8.5V11.3264Z" fill="black"/>
</g>
<defs>
<clipPath id="clip0_2799_49">
<rect width="24" height="24" fill="white" transform="translate(0.5 0.326416)"/>
</clipPath>
</defs>
</svg>
